<svg width="28" height="28" viewBox="0 0 28 28" fill="none" xmlns="http://www.w3.org/2000/svg">
<path fill-rule="evenodd" clip-rule="evenodd" d="M15.2029 13.7886L26.1979 24.7836C26.9566 25.5424 27.2753 26.4649 26.9062 26.8341L26.8341 26.9062C26.465 27.2753 25.5424 26.9566 24.7837 26.1979L13.7887 15.2029L2.79219 26.1994C2.03346 26.9581 1.11234 27.2754 0.743229 26.9063L0.671104 26.8341C0.301994 26.465 0.619249 25.5439 1.37797 24.7852L12.3745 13.7886L1.37803 2.79219C0.619309 2.03346 0.302054 1.11234 0.671163 0.743229L0.743288 0.671104C1.1124 0.301994 2.03352 0.619249 2.79225 1.37797L13.7887 12.3744L24.7836 1.3795C25.5424 0.620778 26.4649 0.30207 26.8341 0.671179L26.9062 0.743304C27.2753 1.11241 26.9566 2.03499 26.1979 2.79372L15.2029 13.7886Z" fill="white"/>
</svg>
