<svg width="24" height="20" viewBox="0 0 24 20" fill="none" xmlns="http://www.w3.org/2000/svg">
<path d="M11.5344 8.25302C13.4995 8.25302 23.0544 2.88 23.0544 2.88L23.0698 1.92C23.0698 0.86016 22.2096 0 21.1469 0H1.92192C0.86016 0 0 0.86016 0 1.92V2.77536C0 2.77536 9.65952 8.25302 11.5344 8.25302Z" fill="#FFFAFA"/>
<path d="M11.5344 10.8928C9.65952 10.8928 0.0144 5.75977 0.01536 5.75977L0 17.2798C0 18.3396 0.86112 19.1998 1.92192 19.1998H21.1469C22.2096 19.1998 23.0698 18.3396 23.0698 17.2798L23.0544 5.75977C23.0544 5.75977 13.5898 10.8928 11.5344 10.8928Z" fill="#FFFAFA"/>
</svg>
