<svg width="38" height="12" viewBox="0 0 38 12" fill="none" xmlns="http://www.w3.org/2000/svg">
<path fill-rule="evenodd" clip-rule="evenodd" d="M1.975 0.525635H35.5229C36.6104 0.525635 37.5 0.905987 37.5 1.37096V1.46182C37.5 1.92679 36.6104 2.30715 35.5229 2.30715H1.975C0.8875 2.30715 0 1.92679 0 1.46182V1.37096C0 0.905987 0.8875 0.525635 1.975 0.525635ZM35.5229 4.97941H1.975C0.8875 4.97941 0 5.35976 0 5.82474V5.91559C0 6.38057 0.8875 6.76092 1.975 6.76092H35.5229C36.6104 6.76092 37.5 6.38057 37.5 5.91559V5.82474C37.5 5.35976 36.6104 4.97941 35.5229 4.97941ZM35.5229 9.43319H1.975C0.8875 9.43319 0 9.81354 0 10.2785V10.3694C0 10.8343 0.8875 11.2147 1.975 11.2147H35.5229C36.6104 11.2147 37.5 10.8343 37.5 10.3694V10.2785C37.5 9.81354 36.6104 9.43319 35.5229 9.43319Z" fill="white"/>
</svg>
