<svg width="194" height="292" viewBox="0 0 194 292" fill="none" xmlns="http://www.w3.org/2000/svg">
<path d="M183.08 118.94L183.898 119.515L183.905 119.505L183.08 118.94ZM149.11 151.725L148.502 150.931L148.491 150.939L149.11 151.725ZM131.73 169.105L130.877 168.584L130.866 168.601L130.856 168.619L131.73 169.105ZM127.78 198.73V199.73H128.78V198.73H127.78ZM66.1601 198.73H65.1601V199.73H66.1601V198.73ZM73.2701 152.12L74.1349 152.622L74.1416 152.61L73.2701 152.12ZM97.3651 124.47L98.0273 125.219L98.0387 125.209L98.0497 125.199L97.3651 124.47ZM110.4 112.225L109.74 111.474L109.728 111.485L109.715 111.496L110.4 112.225ZM118.695 64.035L117.988 64.7421L117.997 64.7512L118.006 64.76L118.695 64.035ZM73.2701 67.195L72.5088 66.5465L72.5017 66.5548L72.4948 66.5633L73.2701 67.195ZM63.7901 93.265L63.6838 94.2593L64.7346 94.3717L64.7887 93.3162L63.7901 93.265ZM0.98506 86.55L-0.00949764 86.4458L-0.113467 87.4382L0.878747 87.5443L0.98506 86.55ZM32.5851 22.955L31.9604 22.1741L31.9549 22.1785L32.5851 22.955ZM166.095 20.98L166.689 20.1758L166.095 20.98ZM124.62 281.285L125.314 282.005L125.321 281.999L125.327 281.992L124.62 281.285ZM70.1101 281.285L69.4155 282.004L69.422 282.011L69.4286 282.017L70.1101 281.285ZM70.1101 228.355L69.4155 227.636L70.1101 228.355ZM124.225 228.355L123.518 229.062L123.531 229.075L123.544 229.087L124.225 228.355ZM192.35 79.835C192.35 95.7613 188.956 108.581 182.255 118.375L183.905 119.505C190.898 109.285 194.35 96.0354 194.35 79.835H192.35ZM182.262 118.365C175.5 127.988 164.267 138.844 148.502 150.931L149.719 152.519C165.553 140.379 176.967 129.379 183.898 119.515L182.262 118.365ZM148.491 150.939C139.782 157.802 133.87 163.685 130.877 168.584L132.583 169.626C135.383 165.045 141.059 159.342 149.729 152.51L148.491 150.939ZM130.856 168.619C128.109 173.564 126.78 180.206 126.78 188.46H128.78C128.78 180.387 130.085 174.126 132.604 169.591L130.856 168.619ZM126.78 188.46V198.73H128.78V188.46H126.78ZM127.78 197.73H66.1601V199.73H127.78V197.73ZM67.1601 198.73V183.72H65.1601V198.73H67.1601ZM67.1601 183.72C67.1601 170.931 69.5101 160.587 74.1348 152.622L72.4053 151.618C67.55 159.98 65.1601 170.702 65.1601 183.72H67.1601ZM74.1416 152.61C78.8049 144.32 86.746 135.189 98.0273 125.219L96.7029 123.721C85.3374 133.765 77.2152 143.067 72.3985 151.63L74.1416 152.61ZM98.0497 125.199L111.085 112.954L109.715 111.496L96.6804 123.741L98.0497 125.199ZM111.06 112.976C121.953 103.412 127.595 93.8127 127.595 84.18H125.595C125.595 92.9806 120.441 102.078 109.74 111.474L111.06 112.976ZM127.595 84.18C127.595 75.527 124.881 68.5327 119.384 63.31L118.006 64.76C123.042 69.5439 125.595 75.9796 125.595 84.18H127.595ZM119.402 63.3279C114.165 58.0905 106.905 55.53 97.7601 55.53V57.53C106.522 57.53 113.219 59.9729 117.988 64.7421L119.402 63.3279ZM97.7601 55.53C87.23 55.53 78.7758 59.1896 72.5088 66.5465L74.0313 67.8435C79.8776 60.9804 87.7501 57.53 97.7601 57.53V55.53ZM72.4948 66.5633C66.5511 73.8579 63.3275 82.7584 62.7914 93.2138L64.7887 93.3162C65.3059 83.2316 68.4024 74.7521 74.0453 67.8267L72.4948 66.5633ZM63.8964 92.2707L1.09137 85.5556L0.878747 87.5443L63.6838 94.2593L63.8964 92.2707ZM1.97962 86.6542C4.85425 59.2145 15.2891 38.2802 33.2152 23.7315L31.9549 22.1785C13.5411 37.1231 2.9092 58.5855 -0.00949764 86.4458L1.97962 86.6542ZM33.2098 23.7359C51.4434 9.14893 73.7301 1.83498 100.13 1.83498V-0.165024C73.3367 -0.165024 50.5934 7.26771 31.9604 22.1741L33.2098 23.7359ZM100.13 1.83498C125.754 1.83498 147.527 8.49898 165.501 21.7842L166.689 20.1758C148.324 6.60098 126.119 -0.165024 100.13 -0.165024V1.83498ZM165.501 21.7841C183.377 34.9969 192.35 54.2939 192.35 79.835H194.35C194.35 53.7627 185.153 33.8231 166.689 20.1758L165.501 21.7841ZM134.68 254.425C134.68 264.696 131.097 273.394 123.913 280.578L125.327 281.992C132.89 274.429 136.68 265.221 136.68 254.425H134.68ZM123.926 280.565C116.75 287.485 107.918 290.95 97.3651 290.95V292.95C108.405 292.95 117.744 289.305 125.314 282.005L123.926 280.565ZM97.3651 290.95C87.0819 290.95 78.2411 287.489 70.7915 280.553L69.4286 282.017C77.2523 289.301 86.5815 292.95 97.3651 292.95V290.95ZM70.8047 280.566C63.3558 273.374 59.6551 264.809 59.6551 254.82H57.6551C57.6551 265.371 61.591 274.45 69.4155 282.004L70.8047 280.566ZM59.6551 254.82C59.6551 244.831 63.3558 236.266 70.8047 229.074L69.4155 227.636C61.591 235.19 57.6551 244.269 57.6551 254.82H59.6551ZM70.8047 229.074C78.2565 221.88 87.0931 218.295 97.3651 218.295V216.295C86.5703 216.295 77.2369 220.084 69.4155 227.636L70.8047 229.074ZM97.3651 218.295C107.636 218.295 116.334 221.878 123.518 229.062L124.932 227.648C117.369 220.085 108.161 216.295 97.3651 216.295V218.295ZM123.544 229.087C130.981 236.011 134.68 244.438 134.68 254.425H136.68C136.68 243.872 132.743 234.919 124.906 227.623L123.544 229.087Z" fill="white"/>
</svg>
