<svg width="24" height="25" viewBox="0 0 24 25" fill="none" xmlns="http://www.w3.org/2000/svg">
<path d="M4.97143 0.0489804C4.9151 0.0563275 4.85878 0.0563275 4.78776 0C4.23917 0.127349 3.68814 0.242453 3.14201 0.386945C2.46118 0.570622 1.93465 0.982057 1.51341 1.54288C0.977078 2.26534 0.62197 3.07352 0.337884 3.91843C0.0219599 4.85396 -0.083348 5.80418 0.0684913 6.79114C0.200738 7.66299 0.494621 8.47851 0.793402 9.30138C1.28565 10.6655 1.82934 12.0027 2.59098 13.2443C3.75917 15.157 5.20409 16.837 6.82289 18.3775C8.10128 19.5897 9.48253 20.6746 11.0009 21.5734C12.6736 22.5604 14.4908 23.2118 16.3349 23.78C17.29 24.0788 18.2843 24.1596 19.2811 23.9367C20.3782 23.6918 21.4093 23.2926 22.3325 22.6461C22.6656 22.4085 22.9962 22.1147 23.2289 21.7791C23.7848 20.971 23.944 20.0305 23.9979 19.073C24.0175 18.7326 23.9024 18.4852 23.6158 18.3162C23.0844 17.9979 22.5579 17.6648 22.0166 17.3538C21.0076 16.7733 19.9398 16.2909 18.9847 15.6076C18.8966 15.5439 18.7888 15.4999 18.6884 15.4509C18.3284 15.2696 17.9855 15.299 17.6721 15.5635C17.5178 15.6909 17.3586 15.8231 17.2263 15.9725C16.6753 16.5921 16.1414 17.2166 15.5879 17.8313C14.9928 18.495 14.694 18.5685 13.9275 18.135C13.1144 17.6746 12.3087 17.1921 11.5348 16.6656C9.52661 15.3064 7.9372 13.5431 6.69309 11.4688C6.35758 10.9079 6.0539 10.3349 5.74777 9.7618C5.5494 9.3871 5.62532 9.03199 5.9192 8.7479C6.29635 8.38545 6.69799 8.04503 7.08494 7.68993C7.5478 7.26625 8.02781 6.85236 8.46374 6.40664C8.76986 6.09561 8.77966 5.70377 8.57394 5.31438C8.47353 5.14294 8.37067 4.96661 8.26292 4.79518C8.14536 4.61396 8.00577 4.44252 7.90536 4.25395C7.51352 3.55108 7.14616 2.83597 6.74697 2.14044C6.40166 1.53799 6.03676 0.95022 5.6743 0.362455C5.51267 0.0955119 5.26287 0.0244902 4.97143 0.0489804Z" fill="white"/>
</svg>
