<svg width="117" height="177" viewBox="0 0 117 177" fill="none" xmlns="http://www.w3.org/2000/svg">
<path d="M109.914 72.1379L110.732 72.7129L110.739 72.7026L109.914 72.1379ZM89.4456 91.8919L88.8371 91.0983L88.8267 91.1065L89.4456 91.8919ZM78.9736 102.364L78.1203 101.842L78.1095 101.86L78.0994 101.878L78.9736 102.364ZM76.5936 120.214V121.214H77.5936V120.214H76.5936ZM39.4656 120.214H38.4656V121.214H39.4656V120.214ZM43.7496 92.1299L44.6145 92.6321L44.6212 92.6202L43.7496 92.1299ZM58.2676 75.4699L58.9298 76.2193L58.9412 76.2092L58.9523 76.1988L58.2676 75.4699ZM66.1216 68.0919L65.4618 67.3405L65.4492 67.3516L65.4369 67.3631L66.1216 68.0919ZM71.1196 39.0559L70.4125 39.7631L70.4216 39.7721L70.4309 39.7809L71.1196 39.0559ZM43.7496 40.9599L42.9884 40.3115L42.9813 40.3198L42.9744 40.3283L43.7496 40.9599ZM38.0376 56.6679L37.9313 57.6623L38.9822 57.7746L39.0363 56.7192L38.0376 56.6679ZM0.195599 52.6219L-0.798958 52.5177L-0.902927 53.5102L0.0892868 53.6163L0.195599 52.6219ZM19.2356 14.304L18.6109 13.5231L18.6054 13.5275L19.2356 14.304ZM99.6796 13.1139L100.274 12.3098L99.6796 13.1139ZM74.6896 169.956L75.3837 170.676L75.3903 170.669L75.3967 170.663L74.6896 169.956ZM41.8456 169.956L41.151 170.675L41.1575 170.682L41.1642 170.688L41.8456 169.956ZM41.8456 138.064L41.151 137.345L41.8456 138.064ZM74.4516 138.064L73.7445 138.771L73.7571 138.784L73.7702 138.796L74.4516 138.064ZM115.102 48.576C115.102 58.1176 113.068 65.7565 109.088 71.5733L110.739 72.7026C115.01 66.4607 117.102 58.3917 117.102 48.576H115.102ZM109.095 71.563C105.055 77.3134 98.323 83.8259 88.8372 91.0983L90.054 92.6856C99.6082 85.3607 106.522 78.7038 110.732 72.7129L109.095 71.563ZM88.8267 91.1065C83.5712 95.2472 79.9625 98.828 78.1203 101.842L79.8269 102.885C81.4754 100.188 84.8481 96.7873 90.0645 92.6774L88.8267 91.1065ZM78.0994 101.878C76.3988 104.939 75.5936 109.016 75.5936 114.026H77.5936C77.5936 109.198 78.375 105.501 79.8478 102.85L78.0994 101.878ZM75.5936 114.026V120.214H77.5936V114.026H75.5936ZM76.5936 119.214H39.4656V121.214H76.5936V119.214ZM40.4656 120.214V111.17H38.4656V120.214H40.4656ZM40.4656 111.17C40.4656 103.51 41.8736 97.3523 44.6144 92.6321L42.8848 91.6278C39.9136 96.7449 38.4656 103.281 38.4656 111.17H40.4656ZM44.6212 92.6202C47.4005 87.6792 52.1492 82.2114 58.9298 76.2193L57.6054 74.7206C50.7406 80.7872 45.8107 86.426 42.878 91.6397L44.6212 92.6202ZM58.9523 76.1988L66.8063 68.8208L65.4369 67.3631L57.5829 74.7411L58.9523 76.1988ZM66.7814 68.8434C73.3829 63.0469 76.8796 57.1634 76.8796 51.1939H74.8796C74.8796 56.3312 71.8709 61.713 65.4618 67.3405L66.7814 68.8434ZM76.8796 51.1939C76.8796 45.8903 75.2126 41.565 71.8084 38.3309L70.4309 39.7809C73.3733 42.5762 74.8796 46.3429 74.8796 51.1939H76.8796ZM71.8267 38.3488C68.5779 35.1001 64.0915 33.5339 58.5056 33.5339V35.5339C63.7091 35.5339 67.6319 36.9825 70.4125 39.7631L71.8267 38.3488ZM58.5056 33.5339C52.0575 33.5339 46.848 35.7805 42.9884 40.3115L44.5108 41.6084C47.9498 37.5714 52.5777 35.5339 58.5056 35.5339V33.5339ZM42.9744 40.3283C39.3333 44.7969 37.3658 50.2434 37.0389 56.6167L39.0363 56.7192C39.3441 50.7165 41.1846 45.6911 44.5248 41.5916L42.9744 40.3283ZM38.1439 55.6736L0.30191 51.6276L0.0892868 53.6163L37.9313 57.6623L38.1439 55.6736ZM1.19016 52.7261C2.91346 36.2765 9.1616 23.7679 19.8658 15.0804L18.6054 13.5275C7.4136 22.6107 0.96841 35.6474 -0.798958 52.5177L1.19016 52.7261ZM19.8603 15.0848C30.7673 6.35922 44.1049 1.97594 59.9336 1.97594V-0.0240631C43.7116 -0.0240631 29.9173 4.478 18.6109 13.5231L19.8603 15.0848ZM59.9336 1.97594C75.3007 1.97594 88.3331 5.97094 99.0852 13.9181L100.274 12.3098C89.1301 4.07294 75.6652 -0.0240631 59.9336 -0.0240631V1.97594ZM99.0852 13.9181C109.739 21.7929 115.102 33.2922 115.102 48.576H117.102C117.102 32.761 111.516 20.619 100.274 12.3098L99.0852 13.9181ZM80.3536 153.772C80.3536 159.856 78.2355 164.996 73.9825 169.249L75.3967 170.663C80.029 166.031 82.3536 160.381 82.3536 153.772H80.3536ZM73.9955 169.236C69.75 173.33 64.5295 175.382 58.2676 175.382V177.382C65.0164 177.382 70.7438 175.15 75.3837 170.676L73.9955 169.236ZM58.2676 175.382C52.1711 175.382 46.9413 173.334 42.527 169.224L41.1642 170.688C45.9525 175.146 51.6707 177.382 58.2676 177.382V175.382ZM42.5402 169.237C38.1267 164.975 35.9436 159.917 35.9436 154.01H33.9436C33.9436 160.479 36.3619 166.051 41.151 170.675L42.5402 169.237ZM35.9436 154.01C35.9436 148.103 38.1267 143.045 42.5402 138.783L41.151 137.345C36.3619 141.969 33.9436 147.541 33.9436 154.01H35.9436ZM42.5402 138.783C46.9567 134.519 52.1823 132.4 58.2676 132.4V130.4C51.6595 130.4 45.9371 132.723 41.151 137.345L42.5402 138.783ZM58.2676 132.4C64.3521 132.4 69.4915 134.518 73.7445 138.771L75.1587 137.357C70.5264 132.725 64.8765 130.4 58.2676 130.4V132.4ZM73.7702 138.796C78.172 142.894 80.3536 147.867 80.3536 153.772H82.3536C82.3536 147.301 79.9339 141.802 75.133 137.332L73.7702 138.796Z" fill="url(#paint0_linear_2_16)"/>
<defs>
<linearGradient id="paint0_linear_2_16" x1="64.9998" y1="0.999999" x2="48.9998" y2="255" gradientUnits="userSpaceOnUse">
<stop stop-color="#A3EDAE"/>
<stop offset="1" stop-color="#283D2B" stop-opacity="0"/>
</linearGradient>
</defs>
</svg>
