<svg width="117" height="177" viewBox="0 0 117 177" fill="none" xmlns="http://www.w3.org/2000/svg">
<path d="M110.276 72.136L111.094 72.711L111.101 72.7007L110.276 72.136ZM89.8081 91.89L89.1996 91.0963L89.1892 91.1045L89.8081 91.89ZM79.3361 102.362L78.4828 101.841L78.472 101.858L78.4619 101.876L79.3361 102.362ZM76.9561 120.212V121.212H77.9561V120.212H76.9561ZM39.8281 120.212H38.8281V121.212H39.8281V120.212ZM44.1121 92.128L44.977 92.6302L44.9837 92.6183L44.1121 92.128ZM58.6301 75.468L59.2923 76.2173L59.3037 76.2073L59.3148 76.1968L58.6301 75.468ZM66.4841 68.09L65.8243 67.3386L65.8117 67.3496L65.7994 67.3611L66.4841 68.09ZM71.4821 39.054L70.775 39.7611L70.784 39.7702L70.7933 39.779L71.4821 39.054ZM44.1121 40.958L43.3508 40.3095L43.3438 40.3179L43.3369 40.3263L44.1121 40.958ZM38.4001 56.666L38.2938 57.6603L39.3447 57.7727L39.3988 56.7172L38.4001 56.666ZM0.558086 52.62L-0.43647 52.5158L-0.54044 53.5082L0.451775 53.6143L0.558086 52.62ZM19.5981 14.302L18.9734 13.5211L18.9679 13.5255L19.5981 14.302ZM100.042 13.112L100.636 12.3078L100.042 13.112ZM75.0521 169.954L75.7462 170.674L75.7528 170.668L75.7592 170.661L75.0521 169.954ZM42.2081 169.954L41.5135 170.673L41.52 170.68L41.5267 170.686L42.2081 169.954ZM42.2081 138.062L41.5135 137.343L42.2081 138.062ZM74.8141 138.062L74.107 138.769L74.1196 138.782L74.1327 138.794L74.8141 138.062ZM115.464 48.574C115.464 58.1156 113.431 65.7546 109.451 71.5713L111.101 72.7007C115.372 66.4587 117.464 58.3897 117.464 48.574H115.464ZM109.458 71.561C105.417 77.3114 98.6855 83.8239 89.1997 91.0964L90.4165 92.6836C99.9707 85.3587 106.884 78.7019 111.094 72.7109L109.458 71.561ZM89.1892 91.1045C83.9336 95.2453 80.325 98.8261 78.4828 101.841L80.1894 102.883C81.8379 100.186 85.2105 96.7854 90.427 92.6755L89.1892 91.1045ZM78.4619 101.876C76.7613 104.937 75.9561 109.015 75.9561 114.024H77.9561C77.9561 109.196 78.7375 105.499 80.2103 102.848L78.4619 101.876ZM75.9561 114.024V120.212H77.9561V114.024H75.9561ZM76.9561 119.212H39.8281V121.212H76.9561V119.212ZM40.8281 120.212V111.168H38.8281V120.212H40.8281ZM40.8281 111.168C40.8281 103.508 42.2361 97.3503 44.9769 92.6301L43.2473 91.6259C40.2761 96.743 38.8281 103.279 38.8281 111.168H40.8281ZM44.9837 92.6183C47.763 87.6773 52.5117 82.2095 59.2923 76.2173L57.9679 74.7187C51.1031 80.7852 46.1732 86.424 43.2405 91.6377L44.9837 92.6183ZM59.3148 76.1968L67.1688 68.8188L65.7994 67.3611L57.9454 74.7391L59.3148 76.1968ZM67.1439 68.8414C73.7454 63.0449 77.2421 57.1614 77.2421 51.192H75.2421C75.2421 56.3292 72.2334 61.711 65.8243 67.3386L67.1439 68.8414ZM77.2421 51.192C77.2421 45.8884 75.5751 41.563 72.1708 38.329L70.7933 39.779C73.7357 42.5743 75.2421 46.3409 75.2421 51.192H77.2421ZM72.1892 38.3469C68.9404 35.0981 64.4539 33.532 58.8681 33.532V35.532C64.0716 35.532 67.9944 36.9805 70.775 39.7611L72.1892 38.3469ZM58.8681 33.532C52.42 33.532 47.2105 35.7786 43.3508 40.3095L44.8733 41.6065C48.3123 37.5694 52.9402 35.532 58.8681 35.532V33.532ZM43.3369 40.3263C39.6958 44.7949 37.7282 50.2414 37.4014 56.6148L39.3988 56.7172C39.7066 50.7146 41.5471 45.6891 44.8873 41.5897L43.3369 40.3263ZM38.5064 55.6717L0.664398 51.6257L0.451775 53.6143L38.2938 57.6603L38.5064 55.6717ZM1.55264 52.7242C3.27594 36.2745 9.52409 23.7659 20.2283 15.0785L18.9679 13.5255C7.77609 22.6088 1.3309 35.6455 -0.43647 52.5158L1.55264 52.7242ZM20.2228 15.0829C31.1298 6.35727 44.4674 1.97398 60.2961 1.97398V-0.0260162C44.0741 -0.0260162 30.2797 4.47604 18.9734 13.5211L20.2228 15.0829ZM60.2961 1.97398C75.6631 1.97398 88.6956 5.96899 99.4477 13.9162L100.636 12.3078C89.4926 4.07099 76.0277 -0.0260162 60.2961 -0.0260162V1.97398ZM99.4477 13.9162C110.102 21.7909 115.464 33.2903 115.464 48.574H117.464C117.464 32.7591 111.878 20.6171 100.636 12.3078L99.4477 13.9162ZM80.7161 153.77C80.7161 159.854 78.598 164.994 74.345 169.247L75.7592 170.661C80.3915 166.029 82.7161 160.379 82.7161 153.77H80.7161ZM74.358 169.234C70.1125 173.328 64.892 175.38 58.6301 175.38V177.38C65.3789 177.38 71.1063 175.148 75.7462 170.674L74.358 169.234ZM58.6301 175.38C52.5336 175.38 47.3038 173.332 42.8895 169.222L41.5267 170.686C46.315 175.144 52.0332 177.38 58.6301 177.38V175.38ZM42.9027 169.235C38.4892 164.973 36.3061 159.915 36.3061 154.008H34.3061C34.3061 160.477 36.7244 166.049 41.5135 170.673L42.9027 169.235ZM36.3061 154.008C36.3061 148.101 38.4892 143.043 42.9027 138.781L41.5135 137.343C36.7244 141.967 34.3061 147.539 34.3061 154.008H36.3061ZM42.9027 138.781C47.3192 134.517 52.5448 132.398 58.6301 132.398V130.398C52.022 130.398 46.2996 132.721 41.5135 137.343L42.9027 138.781ZM58.6301 132.398C64.7146 132.398 69.854 134.516 74.107 138.769L75.5212 137.355C70.8889 132.723 65.2389 130.398 58.6301 130.398V132.398ZM74.1327 138.794C78.5345 142.892 80.7161 147.865 80.7161 153.77H82.7161C82.7161 147.299 80.2963 141.8 75.4955 137.33L74.1327 138.794Z" fill="url(#paint0_linear_2_10)"/>
<defs>
<linearGradient id="paint0_linear_2_10" x1="56" y1="6.5" x2="56" y2="197" gradientUnits="userSpaceOnUse">
<stop stop-color="#F78BAF"/>
<stop offset="1" stop-color="#E2A1B7" stop-opacity="0"/>
</linearGradient>
</defs>
</svg>
