<svg width="800" height="302" viewBox="0 0 800 302" fill="none" xmlns="http://www.w3.org/2000/svg">
<g filter="url(#filter0_d_2_85)">
<path d="M105.76 254.008L110.848 267.064H110.896L115.912 254.008H119.608V271H117.232V256.792H117.184L111.544 271H110.032L104.416 256.792H104.368V271H102.064V254.008H105.76ZM172.944 266.824L171.24 271H168.6L175.968 254.008H178.128L185.424 271H182.736L181.008 266.824H172.944ZM176.976 256.768L173.784 264.736H180.144L176.976 256.768ZM236.782 263.44V271H234.406V254.008H239.854C241.646 254.008 243.102 254.384 244.222 255.136C245.342 255.888 245.902 257.08 245.902 258.712C245.902 259.928 245.526 260.928 244.774 261.712C244.022 262.496 243.022 262.992 241.774 263.2L246.526 271H243.646L239.326 263.44H236.782ZM236.782 256.024V261.448H239.518C242.174 261.448 243.502 260.536 243.502 258.712C243.502 256.92 242.23 256.024 239.686 256.024H236.782ZM298.324 254.008V261.496H298.372L305.956 254.008H309.244L300.988 261.784L309.748 271H306.34L298.372 262.216H298.324V271H295.948V254.008H298.324ZM360.945 263.224V268.888H369.825V271H358.569V254.008H369.465V256.096H360.945V261.184H368.961V263.224H360.945ZM425.735 256.096V271H423.359V256.096H417.911V254.008H431.183V256.096H425.735ZM482.623 254.008V271H480.247V254.008H482.623ZM536.658 254.008L545.538 267.592H545.586V254.008H547.962V271H544.962L535.986 257.128H535.938V271H533.562V254.008H536.658ZM613.373 255.784L611.717 257.512C610.597 256.28 609.061 255.664 607.109 255.664C605.173 255.664 603.605 256.32 602.405 257.632C601.221 258.944 600.629 260.56 600.629 262.48C600.629 264.432 601.221 266.056 602.405 267.352C603.605 268.648 605.197 269.296 607.181 269.296C608.781 269.296 610.101 269.016 611.141 268.456V263.728H607.373V261.712H613.493V269.944C611.653 270.936 609.525 271.432 607.109 271.432C604.453 271.432 602.277 270.6 600.581 268.936C598.885 267.256 598.037 265.104 598.037 262.48C598.037 259.856 598.893 257.72 600.605 256.072C602.317 254.408 604.477 253.576 607.085 253.576C609.757 253.576 611.853 254.312 613.373 255.784Z" fill="white"/>
</g>
<path d="M217.584 168.7C249.384 168.7 267.784 168.2 272.784 167.2C277.784 166.2 280.284 162.3 280.284 155.5C280.284 147.3 276.784 142.2 269.784 140.2C262.784 138 245.384 136.9 217.584 136.9C162.584 136.9 127.884 132.9 113.484 124.9C99.084 116.9 91.884 97.1 91.884 65.5C91.884 36.3 101.284 17.6 120.084 9.39999C134.484 3.19999 166.484 0.0999851 216.084 0.0999851C260.284 0.0999851 288.284 1.29999 300.084 3.69999C327.884 9.29999 341.784 32.9 341.784 74.5H275.784C275.784 63.1 273.284 56.5 268.284 54.7C263.284 52.7 245.984 51.7 216.384 51.7C186.584 51.7 169.384 52.3 164.784 53.5C160.184 54.5 157.884 58.5 157.884 65.5C157.884 72.9 161.784 77.7 169.584 79.9C177.384 82.1 193.384 83.2 217.584 83.2C271.984 83.2 306.984 87.5 322.584 96.1C338.384 104.7 346.284 124.5 346.284 155.5C346.284 184.1 337.484 202.4 319.884 210.4C304.684 217.2 270.484 220.6 217.284 220.6C176.284 220.6 149.684 219.7 137.484 217.9C118.684 215.1 105.884 208.6 99.084 198.4C92.284 188 88.884 170.1 88.884 144.7H154.884C154.884 156.7 157.484 163.7 162.684 165.7C167.884 167.7 186.184 168.7 217.584 168.7ZM338.845 2.79999H404.845V77.8H439.345L514.045 2.79999H604.945L497.845 104.8L618.745 216.7H523.045L439.345 133.3H404.845V217H338.845V2.79999Z" fill="url(#paint0_linear_2_85)"/>
<defs>
<filter id="filter0_d_2_85" x="92.064" y="247.576" width="531.429" height="37.856" filterUnits="userSpaceOnUse" color-interpolation-filters="sRGB">
<feFlood flood-opacity="0" result="BackgroundImageFix"/>
<feColorMatrix in="SourceAlpha" type="matrix" values="0 0 0 0 0 0 0 0 0 0 0 0 0 0 0 0 0 0 127 0" result="hardAlpha"/>
<feOffset dy="4"/>
<feGaussianBlur stdDeviation="5"/>
<feComposite in2="hardAlpha" operator="out"/>
<feColorMatrix type="matrix" values="0 0 0 0 0 0 0 0 0 0 0 0 0 0 0 0 0 0 0.25 0"/>
<feBlend mode="normal" in2="BackgroundImageFix" result="effect1_dropShadow_2_85"/>
<feBlend mode="normal" in="SourceGraphic" in2="effect1_dropShadow_2_85" result="shape"/>
</filter>
<linearGradient id="paint0_linear_2_85" x1="-45.5" y1="45.0814" x2="340.736" y2="500.712" gradientUnits="userSpaceOnUse">
<stop stop-color="#61DBA0"/>
<stop offset="1" stop-color="#374484"/>
</linearGradient>
</defs>
</svg>
