<svg width="299" height="125" viewBox="0 0 299 125" fill="none" xmlns="http://www.w3.org/2000/svg">
<path d="M0.24 55.7L-0.756993 55.6225L-0.822484 56.4652L-0.00253562 56.6701L0.24 55.7ZM1.14 44.12L1.45623 43.1713L0.242169 42.7666L0.143007 44.0425L1.14 44.12ZM5.7 44.12L5.30608 43.2009L5.30608 43.2009L5.7 44.12ZM7.44 42.62L8.22488 43.2396L8.22488 43.2396L7.44 42.62ZM8.76 38.9L7.77687 38.7171L7.77481 38.7282L7.77299 38.7393L8.76 38.9ZM9.24 13.52V12.52H8.24V13.52H9.24ZM45.84 13.52H46.84V12.52H45.84V13.52ZM45.84 56V57H46.84V56H45.84ZM31.56 56H30.56V57H31.56V56ZM31.56 25.46H32.56V24.46H31.56V25.46ZM22.92 25.46V24.46H21.92V25.46H22.92ZM21.96 43.1L22.9427 43.285L22.9431 43.2829L21.96 43.1ZM18.96 51.14L19.7761 51.718L19.7816 51.7101L18.96 51.14ZM14.16 55.22L14.5587 56.1371L14.5587 56.1371L14.16 55.22ZM7.38 55.42C4.58959 55.42 2.29712 55.1835 0.482536 54.7299L-0.00253562 56.6701C2.02288 57.1765 4.49041 57.42 7.38 57.42V55.42ZM1.23699 55.7775L2.13699 44.1975L0.143007 44.0425L-0.756993 55.6225L1.23699 55.7775ZM0.823772 45.0687C1.66863 45.3503 2.61965 45.48 3.66 45.48V43.48C2.78035 43.48 2.05137 43.3697 1.45623 43.1713L0.823772 45.0687ZM3.66 45.48C4.55507 45.48 5.37705 45.3464 6.09392 45.0391L5.30608 43.2009C4.90295 43.3736 4.36493 43.48 3.66 43.48V45.48ZM6.09392 45.0391C6.87187 44.7057 7.57637 44.0611 8.22488 43.2396L6.65512 42.0004C6.10363 42.6989 5.64813 43.0543 5.30608 43.2009L6.09392 45.0391ZM8.22488 43.2396C8.98414 42.2779 9.45837 40.8337 9.74701 39.0607L7.77299 38.7393C7.50163 40.4063 7.09586 41.4421 6.65512 42.0004L8.22488 43.2396ZM9.74313 39.0829C10.0785 37.2805 10.24 35.0338 10.24 32.36H8.24C8.24 34.9662 8.08153 37.0795 7.77687 38.7171L9.74313 39.0829ZM10.24 32.36V13.52H8.24V32.36H10.24ZM9.24 14.52H45.84V12.52H9.24V14.52ZM44.84 13.52V56H46.84V13.52H44.84ZM45.84 55H31.56V57H45.84V55ZM32.56 56V25.46H30.56V56H32.56ZM31.56 24.46H22.92V26.46H31.56V24.46ZM21.92 25.46V30.26H23.92V25.46H21.92ZM21.92 30.26C21.92 35.344 21.6018 39.5581 20.9769 42.9171L22.9431 43.2829C23.5982 39.7619 23.92 35.416 23.92 30.26H21.92ZM20.9773 42.915C20.3525 46.2341 19.3905 48.7654 18.1384 50.5699L19.7816 51.7101C21.2495 49.5946 22.2875 46.7659 22.9427 43.285L20.9773 42.915ZM18.144 50.562C16.8711 52.359 15.4068 53.5875 13.7613 54.3029L14.5587 56.1371C16.5932 55.2525 18.3289 53.761 19.776 51.718L18.144 50.562ZM13.7613 54.3029C12.0817 55.0332 9.96643 55.42 7.38 55.42V57.42C10.1536 57.42 12.5583 57.0068 14.5587 56.1371L13.7613 54.3029ZM53.7647 56H52.7647V57H53.7647V56ZM53.7647 13.52V12.52H52.7647V13.52H53.7647ZM67.3247 13.52H68.3247V12.52H67.3247V13.52ZM67.3247 36.26H66.3247V37.26H67.3247V36.26ZM67.5647 36.26V37.26H68.1566L68.4413 36.7411L67.5647 36.26ZM80.0447 13.52V12.52H79.4528L79.168 13.0389L80.0447 13.52ZM94.8647 13.52H95.8647V12.52H94.8647V13.52ZM94.8647 56V57H95.8647V56H94.8647ZM81.3047 56H80.3047V57H81.3047V56ZM81.3047 34.52H82.3047V33.52H81.3047V34.52ZM81.0647 34.52V33.52H80.4807L80.1938 34.0286L81.0647 34.52ZM68.9447 56V57H69.5286L69.8156 56.4914L68.9447 56ZM54.7647 56V13.52H52.7647V56H54.7647ZM53.7647 14.52H67.3247V12.52H53.7647V14.52ZM66.3247 13.52V36.26H68.3247V13.52H66.3247ZM67.3247 37.26H67.5647V35.26H67.3247V37.26ZM68.4413 36.7411L80.9213 14.0011L79.168 13.0389L66.688 35.7789L68.4413 36.7411ZM80.0447 14.52H94.8647V12.52H80.0447V14.52ZM93.8647 13.52V56H95.8647V13.52H93.8647ZM94.8647 55H81.3047V57H94.8647V55ZM82.3047 56V34.52H80.3047V56H82.3047ZM81.3047 33.52H81.0647V35.52H81.3047V33.52ZM80.1938 34.0286L68.0738 55.5086L69.8156 56.4914L81.9356 35.0114L80.1938 34.0286ZM68.9447 55H53.7647V57H68.9447V55ZM125.548 56H124.548V57H125.548V56ZM125.548 41.6H126.548V40.2922L125.286 40.635L125.548 41.6ZM105.328 39.86L105.988 39.109L105.988 39.109L105.328 39.86ZM101.848 13.52V12.52H100.848V13.52H101.848ZM115.888 13.52H116.888V12.52H115.888V13.52ZM117.028 30.38L116.321 31.0871L116.339 31.1057L116.359 31.1233L117.028 30.38ZM125.548 30.56L126.033 31.4342L126.548 31.1484V30.56H125.548ZM125.548 13.52V12.52H124.548V13.52H125.548ZM139.828 13.52H140.828V12.52H139.828V13.52ZM139.828 56V57H140.828V56H139.828ZM126.548 56V41.6H124.548V56H126.548ZM125.286 40.635C122.12 41.4948 119.108 41.92 116.248 41.92V43.92C119.307 43.92 122.496 43.4652 125.81 42.565L125.286 40.635ZM116.248 41.92C111.392 41.92 108.043 40.9159 105.988 39.109L104.667 40.611C107.252 42.8841 111.183 43.92 116.248 43.92V41.92ZM105.988 39.109C103.972 37.336 102.848 34.3547 102.848 29.9H100.848C100.848 34.6453 102.044 38.304 104.667 40.611L105.988 39.109ZM102.848 29.9V13.52H100.848V29.9H102.848ZM101.848 14.52H115.888V12.52H101.848V14.52ZM114.888 13.52V25.82H116.888V13.52H114.888ZM114.888 25.82C114.888 27.0083 114.986 28.0462 115.203 28.9125C115.418 29.7728 115.767 30.5332 116.321 31.0871L117.735 29.6729C117.529 29.4668 117.308 29.0872 117.143 28.4275C116.979 27.7738 116.888 26.9117 116.888 25.82H114.888ZM116.359 31.1233C117.44 32.0968 119.116 32.46 121.108 32.46V30.46C119.26 30.46 118.215 30.1032 117.697 29.6367L116.359 31.1233ZM121.108 32.46C123.076 32.46 124.747 32.1488 126.033 31.4342L125.062 29.6858C124.188 30.1712 122.899 30.46 121.108 30.46V32.46ZM126.548 30.56V13.52H124.548V30.56H126.548ZM125.548 14.52H139.828V12.52H125.548V14.52ZM138.828 13.52V56H140.828V13.52H138.828ZM139.828 55H125.548V57H139.828V55ZM147.749 56H146.749V57H147.749V56ZM147.749 13.52V12.52H146.749V13.52H147.749ZM162.029 13.52H163.029V12.52H162.029V13.52ZM162.029 27.92H161.029V28.92H162.029V27.92ZM173.669 27.92V28.92H174.669V27.92H173.669ZM173.669 13.52V12.52H172.669V13.52H173.669ZM187.949 13.52H188.949V12.52H187.949V13.52ZM187.949 56V57H188.949V56H187.949ZM173.669 56H172.669V57H173.669V56ZM173.669 39.86H174.669V38.86H173.669V39.86ZM162.029 39.86V38.86H161.029V39.86H162.029ZM162.029 56V57H163.029V56H162.029ZM148.749 56V13.52H146.749V56H148.749ZM147.749 14.52H162.029V12.52H147.749V14.52ZM161.029 13.52V27.92H163.029V13.52H161.029ZM162.029 28.92H173.669V26.92H162.029V28.92ZM174.669 27.92V13.52H172.669V27.92H174.669ZM173.669 14.52H187.949V12.52H173.669V14.52ZM186.949 13.52V56H188.949V13.52H186.949ZM187.949 55H173.669V57H187.949V55ZM174.669 56V39.86H172.669V56H174.669ZM173.669 38.86H162.029V40.86H173.669V38.86ZM161.029 39.86V56H163.029V39.86H161.029ZM162.029 55H147.749V57H162.029V55ZM195.855 56H194.855V57H195.855V56ZM195.855 13.52V12.52H194.855V13.52H195.855ZM210.135 13.52H211.135V12.52H210.135V13.52ZM210.135 27.2H209.135V28.2H210.135V27.2ZM220.635 27.92L220.872 26.9487L220.872 26.9487L220.635 27.92ZM226.095 30.2L225.568 31.0503L225.577 31.0557L226.095 30.2ZM230.115 34.64L229.22 35.0872L229.22 35.0872L230.115 34.64ZM228.915 49.88L228.123 49.2689L228.121 49.271L228.915 49.88ZM222.555 54.62L222.897 55.5594L222.897 55.5594L222.555 54.62ZM210.135 44.9H209.135V45.9H210.135V44.9ZM216.195 44.06L216.749 44.892L216.763 44.8831L216.776 44.8737L216.195 44.06ZM210.135 38.06V37.06H209.135V38.06H210.135ZM235.575 56H234.575V57H235.575V56ZM235.575 13.52V12.52H234.575V13.52H235.575ZM249.855 13.52H250.855V12.52H249.855V13.52ZM249.855 56V57H250.855V56H249.855ZM196.855 56V13.52H194.855V56H196.855ZM195.855 14.52H210.135V12.52H195.855V14.52ZM209.135 13.52V27.2H211.135V13.52H209.135ZM210.135 28.2H214.155V26.2H210.135V28.2ZM214.155 28.2C216.448 28.2 218.526 28.4333 220.397 28.8913L220.872 26.9487C218.823 26.4467 216.582 26.2 214.155 26.2V28.2ZM220.397 28.8913C222.257 29.3469 223.979 30.0667 225.568 31.0503L226.621 29.3497C224.85 28.2533 222.932 27.4531 220.872 26.9487L220.397 28.8913ZM225.577 31.0557C227.124 31.9912 228.339 33.3243 229.22 35.0872L231.009 34.1928C229.97 32.1157 228.505 30.4888 226.612 29.3443L225.577 31.0557ZM229.22 35.0872C230.097 36.8401 230.555 38.9602 230.555 41.48H232.555C232.555 38.7198 232.053 36.2799 231.009 34.1928L229.22 35.0872ZM230.555 41.48C230.555 44.6141 229.728 47.19 228.123 49.2689L229.706 50.4911C231.621 48.01 232.555 44.9859 232.555 41.48H230.555ZM228.121 49.271C226.511 51.3687 224.544 52.8293 222.212 53.6806L222.897 55.5594C225.605 54.5707 227.878 52.8713 229.708 50.489L228.121 49.271ZM222.212 53.6806C219.816 54.5551 217.135 55 214.155 55V57C217.334 57 220.253 56.5249 222.897 55.5594L222.212 53.6806ZM214.155 55H195.855V57H214.155V55ZM210.135 45.9H213.135V43.9H210.135V45.9ZM213.135 45.9C214.494 45.9 215.716 45.5809 216.749 44.892L215.64 43.2279C214.993 43.6591 214.175 43.9 213.135 43.9V45.9ZM216.776 44.8737C217.924 44.0536 218.455 42.8228 218.455 41.36H216.455C216.455 42.2972 216.145 42.8664 215.613 43.2463L216.776 44.8737ZM218.455 41.36C218.455 40.0228 218.003 38.8706 216.982 38.0903C216.011 37.349 214.674 37.06 213.135 37.06V39.06C214.475 39.06 215.298 39.321 215.767 39.6797C216.186 39.9994 216.455 40.4972 216.455 41.36H218.455ZM213.135 37.06H210.135V39.06H213.135V37.06ZM209.135 38.06V44.9H211.135V38.06H209.135ZM236.575 56V13.52H234.575V56H236.575ZM235.575 14.52H249.855V12.52H235.575V14.52ZM248.855 13.52V56H250.855V13.52H248.855ZM249.855 55H235.575V57H249.855V55ZM257.788 56H256.788V57H257.788V56ZM257.788 13.52V12.52H256.788V13.52H257.788ZM271.348 13.52H272.348V12.52H271.348V13.52ZM271.348 36.26H270.348V37.26H271.348V36.26ZM271.588 36.26V37.26H272.18L272.465 36.7411L271.588 36.26ZM284.068 13.52V12.52H283.476L283.191 13.0389L284.068 13.52ZM298.888 13.52H299.888V12.52H298.888V13.52ZM298.888 56V57H299.888V56H298.888ZM285.328 56H284.328V57H285.328V56ZM285.328 34.52H286.328V33.52H285.328V34.52ZM285.088 34.52V33.52H284.504L284.217 34.0286L285.088 34.52ZM272.968 56V57H273.552L273.839 56.4914L272.968 56ZM289.828 1.34L290.811 1.52589L290.996 0.548516L290.019 0.358425L289.828 1.34ZM266.428 1.34L266.237 0.358425L265.261 0.548516L265.446 1.52589L266.428 1.34ZM273.208 0.0199983L274.203 -0.0846867L274.088 -1.17015L273.017 -0.961572L273.208 0.0199983ZM283.048 0.0199983L283.239 -0.961572L282.168 -1.17015L282.054 -0.0846862L283.048 0.0199983ZM258.788 56V13.52H256.788V56H258.788ZM257.788 14.52H271.348V12.52H257.788V14.52ZM270.348 13.52V36.26H272.348V13.52H270.348ZM271.348 37.26H271.588V35.26H271.348V37.26ZM272.465 36.7411L284.945 14.0011L283.191 13.0389L270.711 35.7789L272.465 36.7411ZM284.068 14.52H298.888V12.52H284.068V14.52ZM297.888 13.52V56H299.888V13.52H297.888ZM298.888 55H285.328V57H298.888V55ZM286.328 56V34.52H284.328V56H286.328ZM285.328 33.52H285.088V35.52H285.328V33.52ZM284.217 34.0286L272.097 55.5086L273.839 56.4914L285.959 35.0114L284.217 34.0286ZM272.968 55H257.788V57H272.968V55ZM288.846 1.1541C288.32 3.92943 287.168 5.90572 285.459 7.20344C283.736 8.5108 281.328 9.22 278.128 9.22V11.22C281.608 11.22 284.49 10.4492 286.668 8.79655C288.858 7.13428 290.216 4.67056 290.811 1.52589L288.846 1.1541ZM278.128 9.22C274.928 9.22 272.52 8.5108 270.798 7.20344C269.088 5.90572 267.936 3.92943 267.411 1.1541L265.446 1.52589C266.04 4.67056 267.398 7.13428 269.589 8.79655C271.766 10.4492 274.648 11.22 278.128 11.22V9.22ZM266.619 2.32157L273.399 1.00157L273.017 -0.961572L266.237 0.358425L266.619 2.32157ZM272.214 0.124683C272.359 1.50622 272.952 2.64477 274.047 3.40611C275.102 4.13887 276.504 4.44 278.128 4.44V2.44C276.712 2.44 275.775 2.17113 275.189 1.76389C274.644 1.38522 274.297 0.813778 274.203 -0.0846867L272.214 0.124683ZM278.128 4.44C279.752 4.44 281.155 4.13887 282.209 3.40611C283.304 2.64477 283.897 1.50622 284.043 0.124683L282.054 -0.0846862C281.959 0.813778 281.612 1.38522 281.067 1.76389C280.482 2.17113 279.544 2.44 278.128 2.44V4.44ZM282.857 1.00157L289.637 2.32157L290.019 0.358425L283.239 -0.961572L282.857 1.00157ZM3.96 116H2.96V117H3.96V116ZM3.96 73.52V72.52H2.96V73.52H3.96ZM36.42 73.52H37.42V72.52H36.42V73.52ZM36.42 84.86V85.86H37.42V84.86H36.42ZM17.76 84.86V83.86H16.76V84.86H17.76ZM17.76 88.58H16.76V89.58H17.76V88.58ZM29.28 89.3L29.0326 90.2689L29.0423 90.2714L29.0521 90.2737L29.28 89.3ZM34.5 91.46L33.97 92.308L33.9777 92.3128L33.9855 92.3175L34.5 91.46ZM37.14 110.18L36.3506 109.566L36.349 109.568L37.14 110.18ZM31.08 114.68L30.7357 113.741L30.7357 113.741L31.08 114.68ZM17.76 105.02H16.76V106.02H17.76V105.02ZM24.18 104.3L24.7347 105.132L24.7447 105.125L24.18 104.3ZM17.76 98.96V97.96H16.76V98.96H17.76ZM4.96 116V73.52H2.96V116H4.96ZM3.96 74.52H36.42V72.52H3.96V74.52ZM35.42 73.52V84.86H37.42V73.52H35.42ZM36.42 83.86H17.76V85.86H36.42V83.86ZM16.76 84.86V88.58H18.76V84.86H16.76ZM17.76 89.58H23.1V87.58H17.76V89.58ZM23.1 89.58C25.2691 89.58 27.2448 89.8124 29.0326 90.2689L29.5274 88.3311C27.5552 87.8276 25.4109 87.58 23.1 87.58V89.58ZM29.0521 90.2737C30.8277 90.6893 32.4653 91.3676 33.97 92.308L35.03 90.612C33.3347 89.5524 31.4923 88.7907 29.5079 88.3263L29.0521 90.2737ZM33.9855 92.3175C35.4059 93.1697 36.5416 94.4193 37.3856 96.1072L39.1744 95.2128C38.1784 93.2207 36.7941 91.6703 35.0145 90.6025L33.9855 92.3175ZM37.3856 96.1072C38.2223 97.7806 38.66 99.8009 38.66 102.2H40.66C40.66 99.5591 40.1777 97.2194 39.1744 95.2128L37.3856 96.1072ZM38.66 102.2C38.66 105.174 37.8736 107.608 36.3506 109.566L37.9294 110.794C39.7664 108.432 40.66 105.546 40.66 102.2H38.66ZM36.349 109.568C34.8183 111.547 32.9503 112.929 30.7357 113.741L31.4243 115.619C34.0097 114.671 36.1817 113.053 37.931 110.792L36.349 109.568ZM30.7357 113.741C28.4605 114.575 25.9191 115 23.1 115V117C26.121 117 28.8995 116.545 31.4243 115.619L30.7357 113.741ZM23.1 115H3.96V117H23.1V115ZM17.76 106.02H21.48V104.02H17.76V106.02ZM21.48 106.02C22.7083 106.02 23.8139 105.746 24.7347 105.132L23.6253 103.468C23.1061 103.814 22.4117 104.02 21.48 104.02V106.02ZM24.7447 105.125C25.8272 104.385 26.32 103.244 26.32 101.9H24.32C24.32 102.716 24.0528 103.175 23.6153 103.475L24.7447 105.125ZM26.32 101.9C26.32 100.684 25.909 99.6215 24.9679 98.901C24.0773 98.2192 22.8594 97.96 21.48 97.96V99.96C22.6606 99.96 23.3627 100.191 23.7521 100.489C24.091 100.748 24.32 101.156 24.32 101.9H26.32ZM21.48 97.96H17.76V99.96H21.48V97.96ZM16.76 98.96V105.02H18.76V98.96H16.76ZM45.0342 116H44.0342V117H45.0342V116ZM45.0342 73.52V72.52H44.0342V73.52H45.0342ZM69.6942 74.24L69.9321 73.2687L69.9321 73.2687L69.6942 74.24ZM75.1542 76.52L74.6278 77.3703L74.6368 77.3757L75.1542 76.52ZM79.1742 80.96L78.2798 81.4072L78.2835 81.4146L78.2873 81.4219L79.1742 80.96ZM79.1742 94.46L78.2873 93.9981L78.2835 94.0054L78.2798 94.0128L79.1742 94.46ZM75.2142 99.02L74.6595 98.1879L74.6503 98.1942L75.2142 99.02ZM69.6942 101.54L69.9459 102.508L69.9589 102.504L69.6942 101.54ZM59.2542 102.32V101.32H58.2542V102.32H59.2542ZM59.2542 116V117H60.2542V116H59.2542ZM59.2542 91.46H58.2542V92.46H59.2542V91.46ZM65.3142 90.56L64.733 89.7463L64.733 89.7463L65.3142 90.56ZM59.2542 84.62V83.62H58.2542V84.62H59.2542ZM46.0342 116V73.52H44.0342V116H46.0342ZM45.0342 74.52H63.2742V72.52H45.0342V74.52ZM63.2742 74.52C65.5257 74.52 67.5848 74.753 69.4564 75.2113L69.9321 73.2687C67.8837 72.767 65.6627 72.52 63.2742 72.52V74.52ZM69.4564 75.2113C71.3166 75.6669 73.039 76.3867 74.6279 77.3703L75.6806 75.6697C73.9095 74.5733 71.9918 73.7731 69.9321 73.2687L69.4564 75.2113ZM74.6368 77.3757C76.1839 78.3112 77.3983 79.6443 78.2798 81.4072L80.0686 80.5128C79.0301 78.4357 77.5645 76.8088 75.6716 75.6643L74.6368 77.3757ZM78.2873 81.4219C79.1984 83.1713 79.6742 85.286 79.6742 87.8H81.6742C81.6742 85.034 81.15 82.5887 80.0611 80.4981L78.2873 81.4219ZM79.6742 87.8C79.6742 90.1856 79.2017 92.2424 78.2873 93.9981L80.0611 94.9219C81.1468 92.8376 81.6742 90.4544 81.6742 87.8H79.6742ZM78.2798 94.0128C77.3925 95.7873 76.1855 97.1706 74.6595 98.1879L75.7689 99.852C77.6029 98.6294 79.0359 96.9727 80.0686 94.9072L78.2798 94.0128ZM74.6503 98.1942C73.1075 99.2478 71.3698 100.043 69.4295 100.576L69.9589 102.504C72.0987 101.917 74.041 101.032 75.7782 99.8458L74.6503 98.1942ZM69.4426 100.572C67.5327 101.069 65.478 101.32 63.2742 101.32V103.32C65.6305 103.32 67.8557 103.051 69.9459 102.508L69.4426 100.572ZM63.2742 101.32H59.2542V103.32H63.2742V101.32ZM58.2542 102.32V116H60.2542V102.32H58.2542ZM59.2542 115H45.0342V117H59.2542V115ZM59.2542 92.46H62.2542V90.46H59.2542V92.46ZM62.2542 92.46C63.6277 92.46 64.8595 92.1137 65.8955 91.3737L64.733 89.7463C64.089 90.2063 63.2808 90.46 62.2542 90.46V92.46ZM65.8955 91.3737C67.0338 90.5607 67.5742 89.3567 67.5742 87.92H65.5742C65.5742 88.8033 65.2747 89.3593 64.733 89.7463L65.8955 91.3737ZM67.5742 87.92C67.5742 86.5828 67.1226 85.4306 66.1013 84.6503C65.1308 83.909 63.7933 83.62 62.2542 83.62V85.62C63.5951 85.62 64.4176 85.881 64.8872 86.2397C65.3058 86.5594 65.5742 87.0572 65.5742 87.92H67.5742ZM62.2542 83.62H59.2542V85.62H62.2542V83.62ZM58.2542 84.62V91.46H60.2542V84.62H58.2542ZM86.0498 116H85.0498V117H86.0498V116ZM86.0498 73.52V72.52H85.0498V73.52H86.0498ZM115.27 73.52H116.27V72.52H115.27V73.52ZM115.27 85.4V86.4H116.27V85.4H115.27ZM99.4898 85.4V84.4H98.4898V85.4H99.4898ZM99.4898 89.06H98.4898V90.06H99.4898V89.06ZM114.31 89.06H115.31V88.06H114.31V89.06ZM114.31 100.16V101.16H115.31V100.16H114.31ZM99.4898 100.16V99.16H98.4898V100.16H99.4898ZM99.4898 104.12H98.4898V105.12H99.4898V104.12ZM116.29 104.12H117.29V103.12H116.29V104.12ZM116.29 116V117H117.29V116H116.29ZM87.0498 116V73.52H85.0498V116H87.0498ZM86.0498 74.52H115.27V72.52H86.0498V74.52ZM114.27 73.52V85.4H116.27V73.52H114.27ZM115.27 84.4H99.4898V86.4H115.27V84.4ZM98.4898 85.4V89.06H100.49V85.4H98.4898ZM99.4898 90.06H114.31V88.06H99.4898V90.06ZM113.31 89.06V100.16H115.31V89.06H113.31ZM114.31 99.16H99.4898V101.16H114.31V99.16ZM98.4898 100.16V104.12H100.49V100.16H98.4898ZM99.4898 105.12H116.29V103.12H99.4898V105.12ZM115.29 104.12V116H117.29V104.12H115.29ZM116.29 115H86.0498V117H116.29V115ZM122.202 116H121.202V117H122.202V116ZM122.202 73.52V72.52H121.202V73.52H122.202ZM136.482 73.52H137.482V72.52H136.482V73.52ZM136.482 87.92H135.482V88.92H136.482V87.92ZM148.122 87.92V88.92H149.122V87.92H148.122ZM148.122 73.52V72.52H147.122V73.52H148.122ZM162.402 73.52H163.402V72.52H162.402V73.52ZM162.402 116V117H163.402V116H162.402ZM148.122 116H147.122V117H148.122V116ZM148.122 99.86H149.122V98.86H148.122V99.86ZM136.482 99.86V98.86H135.482V99.86H136.482ZM136.482 116V117H137.482V116H136.482ZM123.202 116V73.52H121.202V116H123.202ZM122.202 74.52H136.482V72.52H122.202V74.52ZM135.482 73.52V87.92H137.482V73.52H135.482ZM136.482 88.92H148.122V86.92H136.482V88.92ZM149.122 87.92V73.52H147.122V87.92H149.122ZM148.122 74.52H162.402V72.52H148.122V74.52ZM161.402 73.52V116H163.402V73.52H161.402ZM162.402 115H148.122V117H162.402V115ZM149.122 116V99.86H147.122V116H149.122ZM148.122 98.86H136.482V100.86H148.122V98.86ZM135.482 99.86V116H137.482V99.86H135.482ZM136.482 115H122.202V117H136.482V115ZM166.948 124.1H165.948V125.1H166.948V124.1ZM166.948 103.94V102.94H165.948V103.94H166.948ZM170.848 103.94V104.94H171.375L171.673 104.505L170.848 103.94ZM175.408 73.52V72.52H174.408V73.52H175.408ZM211.768 73.52H212.768V72.52H211.768V73.52ZM211.768 103.94H210.768V104.94H211.768V103.94ZM216.328 103.94H217.328V102.94H216.328V103.94ZM216.328 124.1V125.1H217.328V124.1H216.328ZM203.968 124.1H202.968V125.1H203.968V124.1ZM203.968 116H204.968V115H203.968V116ZM179.308 116V115H178.308V116H179.308ZM179.308 124.1V125.1H180.308V124.1H179.308ZM185.728 103.94L184.852 103.456L184.033 104.94H185.728V103.94ZM197.488 103.94V104.94H198.488V103.94H197.488ZM197.488 85.46H198.488V84.46H197.488V85.46ZM189.208 85.46V84.46H188.208V85.46H189.208ZM167.948 124.1V103.94H165.948V124.1H167.948ZM166.948 104.94H170.848V102.94H166.948V104.94ZM171.673 104.505C174.88 99.8209 176.408 92.8807 176.408 83.84H174.408C174.408 92.7193 172.895 99.1791 170.023 103.375L171.673 104.505ZM176.408 83.84V73.52H174.408V83.84H176.408ZM175.408 74.52H211.768V72.52H175.408V74.52ZM210.768 73.52V103.94H212.768V73.52H210.768ZM211.768 104.94H216.328V102.94H211.768V104.94ZM215.328 103.94V124.1H217.328V103.94H215.328ZM216.328 123.1H203.968V125.1H216.328V123.1ZM204.968 124.1V116H202.968V124.1H204.968ZM203.968 115H179.308V117H203.968V115ZM178.308 116V124.1H180.308V116H178.308ZM179.308 123.1H166.948V125.1H179.308V123.1ZM185.728 104.94H197.488V102.94H185.728V104.94ZM198.488 103.94V85.46H196.488V103.94H198.488ZM197.488 84.46H189.208V86.46H197.488V84.46ZM188.208 85.46V86H190.208V85.46H188.208ZM188.208 86C188.208 93.6843 187.055 99.4691 184.852 103.456L186.603 104.424C189.04 100.011 190.208 93.8357 190.208 86H188.208Z" fill="url(#paint0_linear_88_261)"/>
<path d="M0.24 55.7L-0.756993 55.6225L-0.822484 56.4652L-0.00253562 56.6701L0.24 55.7ZM1.14 44.12L1.45623 43.1713L0.242169 42.7666L0.143007 44.0425L1.14 44.12ZM5.7 44.12L5.30608 43.2009L5.30608 43.2009L5.7 44.12ZM7.44 42.62L8.22488 43.2396L8.22488 43.2396L7.44 42.62ZM8.76 38.9L7.77687 38.7171L7.77481 38.7282L7.77299 38.7393L8.76 38.9ZM9.24 13.52V12.52H8.24V13.52H9.24ZM45.84 13.52H46.84V12.52H45.84V13.52ZM45.84 56V57H46.84V56H45.84ZM31.56 56H30.56V57H31.56V56ZM31.56 25.46H32.56V24.46H31.56V25.46ZM22.92 25.46V24.46H21.92V25.46H22.92ZM21.96 43.1L22.9427 43.285L22.9431 43.2829L21.96 43.1ZM18.96 51.14L19.7761 51.718L19.7816 51.7101L18.96 51.14ZM14.16 55.22L14.5587 56.1371L14.5587 56.1371L14.16 55.22ZM7.38 55.42C4.58959 55.42 2.29712 55.1835 0.482536 54.7299L-0.00253562 56.6701C2.02288 57.1765 4.49041 57.42 7.38 57.42V55.42ZM1.23699 55.7775L2.13699 44.1975L0.143007 44.0425L-0.756993 55.6225L1.23699 55.7775ZM0.823772 45.0687C1.66863 45.3503 2.61965 45.48 3.66 45.48V43.48C2.78035 43.48 2.05137 43.3697 1.45623 43.1713L0.823772 45.0687ZM3.66 45.48C4.55507 45.48 5.37705 45.3464 6.09392 45.0391L5.30608 43.2009C4.90295 43.3736 4.36493 43.48 3.66 43.48V45.48ZM6.09392 45.0391C6.87187 44.7057 7.57637 44.0611 8.22488 43.2396L6.65512 42.0004C6.10363 42.6989 5.64813 43.0543 5.30608 43.2009L6.09392 45.0391ZM8.22488 43.2396C8.98414 42.2779 9.45837 40.8337 9.74701 39.0607L7.77299 38.7393C7.50163 40.4063 7.09586 41.4421 6.65512 42.0004L8.22488 43.2396ZM9.74313 39.0829C10.0785 37.2805 10.24 35.0338 10.24 32.36H8.24C8.24 34.9662 8.08153 37.0795 7.77687 38.7171L9.74313 39.0829ZM10.24 32.36V13.52H8.24V32.36H10.24ZM9.24 14.52H45.84V12.52H9.24V14.52ZM44.84 13.52V56H46.84V13.52H44.84ZM45.84 55H31.56V57H45.84V55ZM32.56 56V25.46H30.56V56H32.56ZM31.56 24.46H22.92V26.46H31.56V24.46ZM21.92 25.46V30.26H23.92V25.46H21.92ZM21.92 30.26C21.92 35.344 21.6018 39.5581 20.9769 42.9171L22.9431 43.2829C23.5982 39.7619 23.92 35.416 23.92 30.26H21.92ZM20.9773 42.915C20.3525 46.2341 19.3905 48.7654 18.1384 50.5699L19.7816 51.7101C21.2495 49.5946 22.2875 46.7659 22.9427 43.285L20.9773 42.915ZM18.144 50.562C16.8711 52.359 15.4068 53.5875 13.7613 54.3029L14.5587 56.1371C16.5932 55.2525 18.3289 53.761 19.776 51.718L18.144 50.562ZM13.7613 54.3029C12.0817 55.0332 9.96643 55.42 7.38 55.42V57.42C10.1536 57.42 12.5583 57.0068 14.5587 56.1371L13.7613 54.3029ZM53.7647 56H52.7647V57H53.7647V56ZM53.7647 13.52V12.52H52.7647V13.52H53.7647ZM67.3247 13.52H68.3247V12.52H67.3247V13.52ZM67.3247 36.26H66.3247V37.26H67.3247V36.26ZM67.5647 36.26V37.26H68.1566L68.4413 36.7411L67.5647 36.26ZM80.0447 13.52V12.52H79.4528L79.168 13.0389L80.0447 13.52ZM94.8647 13.52H95.8647V12.52H94.8647V13.52ZM94.8647 56V57H95.8647V56H94.8647ZM81.3047 56H80.3047V57H81.3047V56ZM81.3047 34.52H82.3047V33.52H81.3047V34.52ZM81.0647 34.52V33.52H80.4807L80.1938 34.0286L81.0647 34.52ZM68.9447 56V57H69.5286L69.8156 56.4914L68.9447 56ZM54.7647 56V13.52H52.7647V56H54.7647ZM53.7647 14.52H67.3247V12.52H53.7647V14.52ZM66.3247 13.52V36.26H68.3247V13.52H66.3247ZM67.3247 37.26H67.5647V35.26H67.3247V37.26ZM68.4413 36.7411L80.9213 14.0011L79.168 13.0389L66.688 35.7789L68.4413 36.7411ZM80.0447 14.52H94.8647V12.52H80.0447V14.52ZM93.8647 13.52V56H95.8647V13.52H93.8647ZM94.8647 55H81.3047V57H94.8647V55ZM82.3047 56V34.52H80.3047V56H82.3047ZM81.3047 33.52H81.0647V35.52H81.3047V33.52ZM80.1938 34.0286L68.0738 55.5086L69.8156 56.4914L81.9356 35.0114L80.1938 34.0286ZM68.9447 55H53.7647V57H68.9447V55ZM125.548 56H124.548V57H125.548V56ZM125.548 41.6H126.548V40.2922L125.286 40.635L125.548 41.6ZM105.328 39.86L105.988 39.109L105.988 39.109L105.328 39.86ZM101.848 13.52V12.52H100.848V13.52H101.848ZM115.888 13.52H116.888V12.52H115.888V13.52ZM117.028 30.38L116.321 31.0871L116.339 31.1057L116.359 31.1233L117.028 30.38ZM125.548 30.56L126.033 31.4342L126.548 31.1484V30.56H125.548ZM125.548 13.52V12.52H124.548V13.52H125.548ZM139.828 13.52H140.828V12.52H139.828V13.52ZM139.828 56V57H140.828V56H139.828ZM126.548 56V41.6H124.548V56H126.548ZM125.286 40.635C122.12 41.4948 119.108 41.92 116.248 41.92V43.92C119.307 43.92 122.496 43.4652 125.81 42.565L125.286 40.635ZM116.248 41.92C111.392 41.92 108.043 40.9159 105.988 39.109L104.667 40.611C107.252 42.8841 111.183 43.92 116.248 43.92V41.92ZM105.988 39.109C103.972 37.336 102.848 34.3547 102.848 29.9H100.848C100.848 34.6453 102.044 38.304 104.667 40.611L105.988 39.109ZM102.848 29.9V13.52H100.848V29.9H102.848ZM101.848 14.52H115.888V12.52H101.848V14.52ZM114.888 13.52V25.82H116.888V13.52H114.888ZM114.888 25.82C114.888 27.0083 114.986 28.0462 115.203 28.9125C115.418 29.7728 115.767 30.5332 116.321 31.0871L117.735 29.6729C117.529 29.4668 117.308 29.0872 117.143 28.4275C116.979 27.7738 116.888 26.9117 116.888 25.82H114.888ZM116.359 31.1233C117.44 32.0968 119.116 32.46 121.108 32.46V30.46C119.26 30.46 118.215 30.1032 117.697 29.6367L116.359 31.1233ZM121.108 32.46C123.076 32.46 124.747 32.1488 126.033 31.4342L125.062 29.6858C124.188 30.1712 122.899 30.46 121.108 30.46V32.46ZM126.548 30.56V13.52H124.548V30.56H126.548ZM125.548 14.52H139.828V12.52H125.548V14.52ZM138.828 13.52V56H140.828V13.52H138.828ZM139.828 55H125.548V57H139.828V55ZM147.749 56H146.749V57H147.749V56ZM147.749 13.52V12.52H146.749V13.52H147.749ZM162.029 13.52H163.029V12.52H162.029V13.52ZM162.029 27.92H161.029V28.92H162.029V27.92ZM173.669 27.92V28.92H174.669V27.92H173.669ZM173.669 13.52V12.52H172.669V13.52H173.669ZM187.949 13.52H188.949V12.52H187.949V13.52ZM187.949 56V57H188.949V56H187.949ZM173.669 56H172.669V57H173.669V56ZM173.669 39.86H174.669V38.86H173.669V39.86ZM162.029 39.86V38.86H161.029V39.86H162.029ZM162.029 56V57H163.029V56H162.029ZM148.749 56V13.52H146.749V56H148.749ZM147.749 14.52H162.029V12.52H147.749V14.52ZM161.029 13.52V27.92H163.029V13.52H161.029ZM162.029 28.92H173.669V26.92H162.029V28.92ZM174.669 27.92V13.52H172.669V27.92H174.669ZM173.669 14.52H187.949V12.52H173.669V14.52ZM186.949 13.52V56H188.949V13.52H186.949ZM187.949 55H173.669V57H187.949V55ZM174.669 56V39.86H172.669V56H174.669ZM173.669 38.86H162.029V40.86H173.669V38.86ZM161.029 39.86V56H163.029V39.86H161.029ZM162.029 55H147.749V57H162.029V55ZM195.855 56H194.855V57H195.855V56ZM195.855 13.52V12.52H194.855V13.52H195.855ZM210.135 13.52H211.135V12.52H210.135V13.52ZM210.135 27.2H209.135V28.2H210.135V27.2ZM220.635 27.92L220.872 26.9487L220.872 26.9487L220.635 27.92ZM226.095 30.2L225.568 31.0503L225.577 31.0557L226.095 30.2ZM230.115 34.64L229.22 35.0872L229.22 35.0872L230.115 34.64ZM228.915 49.88L228.123 49.2689L228.121 49.271L228.915 49.88ZM222.555 54.62L222.897 55.5594L222.897 55.5594L222.555 54.62ZM210.135 44.9H209.135V45.9H210.135V44.9ZM216.195 44.06L216.749 44.892L216.763 44.8831L216.776 44.8737L216.195 44.06ZM210.135 38.06V37.06H209.135V38.06H210.135ZM235.575 56H234.575V57H235.575V56ZM235.575 13.52V12.52H234.575V13.52H235.575ZM249.855 13.52H250.855V12.52H249.855V13.52ZM249.855 56V57H250.855V56H249.855ZM196.855 56V13.52H194.855V56H196.855ZM195.855 14.52H210.135V12.52H195.855V14.52ZM209.135 13.52V27.2H211.135V13.52H209.135ZM210.135 28.2H214.155V26.2H210.135V28.2ZM214.155 28.2C216.448 28.2 218.526 28.4333 220.397 28.8913L220.872 26.9487C218.823 26.4467 216.582 26.2 214.155 26.2V28.2ZM220.397 28.8913C222.257 29.3469 223.979 30.0667 225.568 31.0503L226.621 29.3497C224.85 28.2533 222.932 27.4531 220.872 26.9487L220.397 28.8913ZM225.577 31.0557C227.124 31.9912 228.339 33.3243 229.22 35.0872L231.009 34.1928C229.97 32.1157 228.505 30.4888 226.612 29.3443L225.577 31.0557ZM229.22 35.0872C230.097 36.8401 230.555 38.9602 230.555 41.48H232.555C232.555 38.7198 232.053 36.2799 231.009 34.1928L229.22 35.0872ZM230.555 41.48C230.555 44.6141 229.728 47.19 228.123 49.2689L229.706 50.4911C231.621 48.01 232.555 44.9859 232.555 41.48H230.555ZM228.121 49.271C226.511 51.3687 224.544 52.8293 222.212 53.6806L222.897 55.5594C225.605 54.5707 227.878 52.8713 229.708 50.489L228.121 49.271ZM222.212 53.6806C219.816 54.5551 217.135 55 214.155 55V57C217.334 57 220.253 56.5249 222.897 55.5594L222.212 53.6806ZM214.155 55H195.855V57H214.155V55ZM210.135 45.9H213.135V43.9H210.135V45.9ZM213.135 45.9C214.494 45.9 215.716 45.5809 216.749 44.892L215.64 43.2279C214.993 43.6591 214.175 43.9 213.135 43.9V45.9ZM216.776 44.8737C217.924 44.0536 218.455 42.8228 218.455 41.36H216.455C216.455 42.2972 216.145 42.8664 215.613 43.2463L216.776 44.8737ZM218.455 41.36C218.455 40.0228 218.003 38.8706 216.982 38.0903C216.011 37.349 214.674 37.06 213.135 37.06V39.06C214.475 39.06 215.298 39.321 215.767 39.6797C216.186 39.9994 216.455 40.4972 216.455 41.36H218.455ZM213.135 37.06H210.135V39.06H213.135V37.06ZM209.135 38.06V44.9H211.135V38.06H209.135ZM236.575 56V13.52H234.575V56H236.575ZM235.575 14.52H249.855V12.52H235.575V14.52ZM248.855 13.52V56H250.855V13.52H248.855ZM249.855 55H235.575V57H249.855V55ZM257.788 56H256.788V57H257.788V56ZM257.788 13.52V12.52H256.788V13.52H257.788ZM271.348 13.52H272.348V12.52H271.348V13.52ZM271.348 36.26H270.348V37.26H271.348V36.26ZM271.588 36.26V37.26H272.18L272.465 36.7411L271.588 36.26ZM284.068 13.52V12.52H283.476L283.191 13.0389L284.068 13.52ZM298.888 13.52H299.888V12.52H298.888V13.52ZM298.888 56V57H299.888V56H298.888ZM285.328 56H284.328V57H285.328V56ZM285.328 34.52H286.328V33.52H285.328V34.52ZM285.088 34.52V33.52H284.504L284.217 34.0286L285.088 34.52ZM272.968 56V57H273.552L273.839 56.4914L272.968 56ZM289.828 1.34L290.811 1.52589L290.996 0.548516L290.019 0.358425L289.828 1.34ZM266.428 1.34L266.237 0.358425L265.261 0.548516L265.446 1.52589L266.428 1.34ZM273.208 0.0199983L274.203 -0.0846867L274.088 -1.17015L273.017 -0.961572L273.208 0.0199983ZM283.048 0.0199983L283.239 -0.961572L282.168 -1.17015L282.054 -0.0846862L283.048 0.0199983ZM258.788 56V13.52H256.788V56H258.788ZM257.788 14.52H271.348V12.52H257.788V14.52ZM270.348 13.52V36.26H272.348V13.52H270.348ZM271.348 37.26H271.588V35.26H271.348V37.26ZM272.465 36.7411L284.945 14.0011L283.191 13.0389L270.711 35.7789L272.465 36.7411ZM284.068 14.52H298.888V12.52H284.068V14.52ZM297.888 13.52V56H299.888V13.52H297.888ZM298.888 55H285.328V57H298.888V55ZM286.328 56V34.52H284.328V56H286.328ZM285.328 33.52H285.088V35.52H285.328V33.52ZM284.217 34.0286L272.097 55.5086L273.839 56.4914L285.959 35.0114L284.217 34.0286ZM272.968 55H257.788V57H272.968V55ZM288.846 1.1541C288.32 3.92943 287.168 5.90572 285.459 7.20344C283.736 8.5108 281.328 9.22 278.128 9.22V11.22C281.608 11.22 284.49 10.4492 286.668 8.79655C288.858 7.13428 290.216 4.67056 290.811 1.52589L288.846 1.1541ZM278.128 9.22C274.928 9.22 272.52 8.5108 270.798 7.20344C269.088 5.90572 267.936 3.92943 267.411 1.1541L265.446 1.52589C266.04 4.67056 267.398 7.13428 269.589 8.79655C271.766 10.4492 274.648 11.22 278.128 11.22V9.22ZM266.619 2.32157L273.399 1.00157L273.017 -0.961572L266.237 0.358425L266.619 2.32157ZM272.214 0.124683C272.359 1.50622 272.952 2.64477 274.047 3.40611C275.102 4.13887 276.504 4.44 278.128 4.44V2.44C276.712 2.44 275.775 2.17113 275.189 1.76389C274.644 1.38522 274.297 0.813778 274.203 -0.0846867L272.214 0.124683ZM278.128 4.44C279.752 4.44 281.155 4.13887 282.209 3.40611C283.304 2.64477 283.897 1.50622 284.043 0.124683L282.054 -0.0846862C281.959 0.813778 281.612 1.38522 281.067 1.76389C280.482 2.17113 279.544 2.44 278.128 2.44V4.44ZM282.857 1.00157L289.637 2.32157L290.019 0.358425L283.239 -0.961572L282.857 1.00157ZM3.96 116H2.96V117H3.96V116ZM3.96 73.52V72.52H2.96V73.52H3.96ZM36.42 73.52H37.42V72.52H36.42V73.52ZM36.42 84.86V85.86H37.42V84.86H36.42ZM17.76 84.86V83.86H16.76V84.86H17.76ZM17.76 88.58H16.76V89.58H17.76V88.58ZM29.28 89.3L29.0326 90.2689L29.0423 90.2714L29.0521 90.2737L29.28 89.3ZM34.5 91.46L33.97 92.308L33.9777 92.3128L33.9855 92.3175L34.5 91.46ZM37.14 110.18L36.3506 109.566L36.349 109.568L37.14 110.18ZM31.08 114.68L30.7357 113.741L30.7357 113.741L31.08 114.68ZM17.76 105.02H16.76V106.02H17.76V105.02ZM24.18 104.3L24.7347 105.132L24.7447 105.125L24.18 104.3ZM17.76 98.96V97.96H16.76V98.96H17.76ZM4.96 116V73.52H2.96V116H4.96ZM3.96 74.52H36.42V72.52H3.96V74.52ZM35.42 73.52V84.86H37.42V73.52H35.42ZM36.42 83.86H17.76V85.86H36.42V83.86ZM16.76 84.86V88.58H18.76V84.86H16.76ZM17.76 89.58H23.1V87.58H17.76V89.58ZM23.1 89.58C25.2691 89.58 27.2448 89.8124 29.0326 90.2689L29.5274 88.3311C27.5552 87.8276 25.4109 87.58 23.1 87.58V89.58ZM29.0521 90.2737C30.8277 90.6893 32.4653 91.3676 33.97 92.308L35.03 90.612C33.3347 89.5524 31.4923 88.7907 29.5079 88.3263L29.0521 90.2737ZM33.9855 92.3175C35.4059 93.1697 36.5416 94.4193 37.3856 96.1072L39.1744 95.2128C38.1784 93.2207 36.7941 91.6703 35.0145 90.6025L33.9855 92.3175ZM37.3856 96.1072C38.2223 97.7806 38.66 99.8009 38.66 102.2H40.66C40.66 99.5591 40.1777 97.2194 39.1744 95.2128L37.3856 96.1072ZM38.66 102.2C38.66 105.174 37.8736 107.608 36.3506 109.566L37.9294 110.794C39.7664 108.432 40.66 105.546 40.66 102.2H38.66ZM36.349 109.568C34.8183 111.547 32.9503 112.929 30.7357 113.741L31.4243 115.619C34.0097 114.671 36.1817 113.053 37.931 110.792L36.349 109.568ZM30.7357 113.741C28.4605 114.575 25.9191 115 23.1 115V117C26.121 117 28.8995 116.545 31.4243 115.619L30.7357 113.741ZM23.1 115H3.96V117H23.1V115ZM17.76 106.02H21.48V104.02H17.76V106.02ZM21.48 106.02C22.7083 106.02 23.8139 105.746 24.7347 105.132L23.6253 103.468C23.1061 103.814 22.4117 104.02 21.48 104.02V106.02ZM24.7447 105.125C25.8272 104.385 26.32 103.244 26.32 101.9H24.32C24.32 102.716 24.0528 103.175 23.6153 103.475L24.7447 105.125ZM26.32 101.9C26.32 100.684 25.909 99.6215 24.9679 98.901C24.0773 98.2192 22.8594 97.96 21.48 97.96V99.96C22.6606 99.96 23.3627 100.191 23.7521 100.489C24.091 100.748 24.32 101.156 24.32 101.9H26.32ZM21.48 97.96H17.76V99.96H21.48V97.96ZM16.76 98.96V105.02H18.76V98.96H16.76ZM45.0342 116H44.0342V117H45.0342V116ZM45.0342 73.52V72.52H44.0342V73.52H45.0342ZM69.6942 74.24L69.9321 73.2687L69.9321 73.2687L69.6942 74.24ZM75.1542 76.52L74.6278 77.3703L74.6368 77.3757L75.1542 76.52ZM79.1742 80.96L78.2798 81.4072L78.2835 81.4146L78.2873 81.4219L79.1742 80.96ZM79.1742 94.46L78.2873 93.9981L78.2835 94.0054L78.2798 94.0128L79.1742 94.46ZM75.2142 99.02L74.6595 98.1879L74.6503 98.1942L75.2142 99.02ZM69.6942 101.54L69.9459 102.508L69.9589 102.504L69.6942 101.54ZM59.2542 102.32V101.32H58.2542V102.32H59.2542ZM59.2542 116V117H60.2542V116H59.2542ZM59.2542 91.46H58.2542V92.46H59.2542V91.46ZM65.3142 90.56L64.733 89.7463L64.733 89.7463L65.3142 90.56ZM59.2542 84.62V83.62H58.2542V84.62H59.2542ZM46.0342 116V73.52H44.0342V116H46.0342ZM45.0342 74.52H63.2742V72.52H45.0342V74.52ZM63.2742 74.52C65.5257 74.52 67.5848 74.753 69.4564 75.2113L69.9321 73.2687C67.8837 72.767 65.6627 72.52 63.2742 72.52V74.52ZM69.4564 75.2113C71.3166 75.6669 73.039 76.3867 74.6279 77.3703L75.6806 75.6697C73.9095 74.5733 71.9918 73.7731 69.9321 73.2687L69.4564 75.2113ZM74.6368 77.3757C76.1839 78.3112 77.3983 79.6443 78.2798 81.4072L80.0686 80.5128C79.0301 78.4357 77.5645 76.8088 75.6716 75.6643L74.6368 77.3757ZM78.2873 81.4219C79.1984 83.1713 79.6742 85.286 79.6742 87.8H81.6742C81.6742 85.034 81.15 82.5887 80.0611 80.4981L78.2873 81.4219ZM79.6742 87.8C79.6742 90.1856 79.2017 92.2424 78.2873 93.9981L80.0611 94.9219C81.1468 92.8376 81.6742 90.4544 81.6742 87.8H79.6742ZM78.2798 94.0128C77.3925 95.7873 76.1855 97.1706 74.6595 98.1879L75.7689 99.852C77.6029 98.6294 79.0359 96.9727 80.0686 94.9072L78.2798 94.0128ZM74.6503 98.1942C73.1075 99.2478 71.3698 100.043 69.4295 100.576L69.9589 102.504C72.0987 101.917 74.041 101.032 75.7782 99.8458L74.6503 98.1942ZM69.4426 100.572C67.5327 101.069 65.478 101.32 63.2742 101.32V103.32C65.6305 103.32 67.8557 103.051 69.9459 102.508L69.4426 100.572ZM63.2742 101.32H59.2542V103.32H63.2742V101.32ZM58.2542 102.32V116H60.2542V102.32H58.2542ZM59.2542 115H45.0342V117H59.2542V115ZM59.2542 92.46H62.2542V90.46H59.2542V92.46ZM62.2542 92.46C63.6277 92.46 64.8595 92.1137 65.8955 91.3737L64.733 89.7463C64.089 90.2063 63.2808 90.46 62.2542 90.46V92.46ZM65.8955 91.3737C67.0338 90.5607 67.5742 89.3567 67.5742 87.92H65.5742C65.5742 88.8033 65.2747 89.3593 64.733 89.7463L65.8955 91.3737ZM67.5742 87.92C67.5742 86.5828 67.1226 85.4306 66.1013 84.6503C65.1308 83.909 63.7933 83.62 62.2542 83.62V85.62C63.5951 85.62 64.4176 85.881 64.8872 86.2397C65.3058 86.5594 65.5742 87.0572 65.5742 87.92H67.5742ZM62.2542 83.62H59.2542V85.62H62.2542V83.62ZM58.2542 84.62V91.46H60.2542V84.62H58.2542ZM86.0498 116H85.0498V117H86.0498V116ZM86.0498 73.52V72.52H85.0498V73.52H86.0498ZM115.27 73.52H116.27V72.52H115.27V73.52ZM115.27 85.4V86.4H116.27V85.4H115.27ZM99.4898 85.4V84.4H98.4898V85.4H99.4898ZM99.4898 89.06H98.4898V90.06H99.4898V89.06ZM114.31 89.06H115.31V88.06H114.31V89.06ZM114.31 100.16V101.16H115.31V100.16H114.31ZM99.4898 100.16V99.16H98.4898V100.16H99.4898ZM99.4898 104.12H98.4898V105.12H99.4898V104.12ZM116.29 104.12H117.29V103.12H116.29V104.12ZM116.29 116V117H117.29V116H116.29ZM87.0498 116V73.52H85.0498V116H87.0498ZM86.0498 74.52H115.27V72.52H86.0498V74.52ZM114.27 73.52V85.4H116.27V73.52H114.27ZM115.27 84.4H99.4898V86.4H115.27V84.4ZM98.4898 85.4V89.06H100.49V85.4H98.4898ZM99.4898 90.06H114.31V88.06H99.4898V90.06ZM113.31 89.06V100.16H115.31V89.06H113.31ZM114.31 99.16H99.4898V101.16H114.31V99.16ZM98.4898 100.16V104.12H100.49V100.16H98.4898ZM99.4898 105.12H116.29V103.12H99.4898V105.12ZM115.29 104.12V116H117.29V104.12H115.29ZM116.29 115H86.0498V117H116.29V115ZM122.202 116H121.202V117H122.202V116ZM122.202 73.52V72.52H121.202V73.52H122.202ZM136.482 73.52H137.482V72.52H136.482V73.52ZM136.482 87.92H135.482V88.92H136.482V87.92ZM148.122 87.92V88.92H149.122V87.92H148.122ZM148.122 73.52V72.52H147.122V73.52H148.122ZM162.402 73.52H163.402V72.52H162.402V73.52ZM162.402 116V117H163.402V116H162.402ZM148.122 116H147.122V117H148.122V116ZM148.122 99.86H149.122V98.86H148.122V99.86ZM136.482 99.86V98.86H135.482V99.86H136.482ZM136.482 116V117H137.482V116H136.482ZM123.202 116V73.52H121.202V116H123.202ZM122.202 74.52H136.482V72.52H122.202V74.52ZM135.482 73.52V87.92H137.482V73.52H135.482ZM136.482 88.92H148.122V86.92H136.482V88.92ZM149.122 87.92V73.52H147.122V87.92H149.122ZM148.122 74.52H162.402V72.52H148.122V74.52ZM161.402 73.52V116H163.402V73.52H161.402ZM162.402 115H148.122V117H162.402V115ZM149.122 116V99.86H147.122V116H149.122ZM148.122 98.86H136.482V100.86H148.122V98.86ZM135.482 99.86V116H137.482V99.86H135.482ZM136.482 115H122.202V117H136.482V115ZM166.948 124.1H165.948V125.1H166.948V124.1ZM166.948 103.94V102.94H165.948V103.94H166.948ZM170.848 103.94V104.94H171.375L171.673 104.505L170.848 103.94ZM175.408 73.52V72.52H174.408V73.52H175.408ZM211.768 73.52H212.768V72.52H211.768V73.52ZM211.768 103.94H210.768V104.94H211.768V103.94ZM216.328 103.94H217.328V102.94H216.328V103.94ZM216.328 124.1V125.1H217.328V124.1H216.328ZM203.968 124.1H202.968V125.1H203.968V124.1ZM203.968 116H204.968V115H203.968V116ZM179.308 116V115H178.308V116H179.308ZM179.308 124.1V125.1H180.308V124.1H179.308ZM185.728 103.94L184.852 103.456L184.033 104.94H185.728V103.94ZM197.488 103.94V104.94H198.488V103.94H197.488ZM197.488 85.46H198.488V84.46H197.488V85.46ZM189.208 85.46V84.46H188.208V85.46H189.208ZM167.948 124.1V103.94H165.948V124.1H167.948ZM166.948 104.94H170.848V102.94H166.948V104.94ZM171.673 104.505C174.88 99.8209 176.408 92.8807 176.408 83.84H174.408C174.408 92.7193 172.895 99.1791 170.023 103.375L171.673 104.505ZM176.408 83.84V73.52H174.408V83.84H176.408ZM175.408 74.52H211.768V72.52H175.408V74.52ZM210.768 73.52V103.94H212.768V73.52H210.768ZM211.768 104.94H216.328V102.94H211.768V104.94ZM215.328 103.94V124.1H217.328V103.94H215.328ZM216.328 123.1H203.968V125.1H216.328V123.1ZM204.968 124.1V116H202.968V124.1H204.968ZM203.968 115H179.308V117H203.968V115ZM178.308 116V124.1H180.308V116H178.308ZM179.308 123.1H166.948V125.1H179.308V123.1ZM185.728 104.94H197.488V102.94H185.728V104.94ZM198.488 103.94V85.46H196.488V103.94H198.488ZM197.488 84.46H189.208V86.46H197.488V84.46ZM188.208 85.46V86H190.208V85.46H188.208ZM188.208 86C188.208 93.6843 187.055 99.4691 184.852 103.456L186.603 104.424C189.04 100.011 190.208 93.8357 190.208 86H188.208Z" fill="black" fill-opacity="0.2"/>
<defs>
<linearGradient id="paint0_linear_88_261" x1="168.5" y1="4" x2="168.5" y2="210.843" gradientUnits="userSpaceOnUse">
<stop stop-color="#979797"/>
<stop offset="1" stop-color="#979797" stop-opacity="0"/>
</linearGradient>
</defs>
</svg>
