<svg width="601" height="108" viewBox="0 0 601 108" fill="none" xmlns="http://www.w3.org/2000/svg">
<path d="M0.504 105H-0.496V106H0.504V105ZM0.504 3.048V2.048H-0.496V3.048H0.504ZM78.408 3.048H79.408V2.048H78.408V3.048ZM78.408 30.264V31.264H79.408V30.264H78.408ZM33.624 30.264V29.264H32.624V30.264H33.624ZM33.624 39.192H32.624V40.192H33.624V39.192ZM61.272 40.92L61.0246 41.8889L61.0343 41.8914L61.0441 41.8937L61.272 40.92ZM73.8 46.104L73.27 46.952L73.2777 46.9568L73.2855 46.9615L73.8 46.104ZM80.136 91.032L79.3466 90.4181L79.345 90.4201L80.136 91.032ZM65.592 101.832L65.2477 100.893L65.2477 100.893L65.592 101.832ZM33.624 78.648H32.624V79.648H33.624V78.648ZM49.032 76.92L49.5867 77.7521L49.5967 77.7453L49.032 76.92ZM33.624 64.104V63.104H32.624V64.104H33.624ZM1.504 105V3.048H-0.496V105H1.504ZM0.504 4.048H78.408V2.048H0.504V4.048ZM77.408 3.048V30.264H79.408V3.048H77.408ZM78.408 29.264H33.624V31.264H78.408V29.264ZM32.624 30.264V39.192H34.624V30.264H32.624ZM33.624 40.192H46.44V38.192H33.624V40.192ZM46.44 40.192C51.7451 40.192 56.6048 40.7604 61.0246 41.8889L61.5194 39.9511C56.9152 38.7756 51.8869 38.192 46.44 38.192V40.192ZM61.0441 41.8937C65.4517 42.9253 69.5253 44.6116 73.27 46.952L74.33 45.256C70.3947 42.7964 66.1163 41.0267 61.4999 39.9463L61.0441 41.8937ZM73.2855 46.9615C76.9459 49.1577 79.8456 52.3673 81.9776 56.6312L83.7664 55.7368C81.4824 51.1687 78.3341 47.6582 74.3145 45.2465L73.2855 46.9615ZM81.9776 56.6312C84.1023 60.8806 85.184 65.9529 85.184 71.88H87.184C87.184 65.7111 86.0577 60.3194 83.7664 55.7368L81.9776 56.6312ZM85.184 71.88C85.184 79.2776 83.2216 85.436 79.3467 90.4181L80.9254 91.6459C85.1144 86.26 87.184 79.6504 87.184 71.88H85.184ZM79.345 90.4201C75.5183 95.3668 70.8223 98.8491 65.2477 100.893L65.9363 102.771C71.8817 100.591 76.8817 96.8732 80.927 91.6439L79.345 90.4201ZM65.2477 100.893C59.6125 102.959 53.3471 104 46.44 104V106C53.549 106 60.0515 104.929 65.9363 102.771L65.2477 100.893ZM46.44 104H0.504V106H46.44V104ZM33.624 79.648H42.552V77.648H33.624V79.648ZM42.552 79.648C45.2923 79.648 47.6579 79.0379 49.5867 77.752L48.4773 76.0879C46.9501 77.1061 44.9957 77.648 42.552 77.648V79.648ZM49.5967 77.7453C51.7432 76.2767 52.768 74.0164 52.768 71.16H50.768C50.768 73.4876 49.9688 75.0673 48.4673 76.0947L49.5967 77.7453ZM52.768 71.16C52.768 68.5716 51.909 66.4805 50.0719 65.074C48.2853 63.7062 45.7234 63.104 42.552 63.104V65.104C45.5246 65.104 47.5707 65.6778 48.8561 66.662C50.091 67.6075 50.768 69.0443 50.768 71.16H52.768ZM42.552 63.104H33.624V65.104H42.552V63.104ZM32.624 64.104V78.648H34.624V64.104H32.624ZM99.0821 105H98.0821V106H99.0821V105ZM99.0821 3.048V2.048H98.0821V3.048H99.0821ZM131.626 3.048H132.626V2.048H131.626V3.048ZM131.626 57.624H130.626V58.624H131.626V57.624ZM132.202 57.624V58.624H132.794L133.079 58.1051L132.202 57.624ZM162.154 3.048V2.048H161.562L161.277 2.56688L162.154 3.048ZM197.722 3.048H198.722V2.048H197.722V3.048ZM197.722 105V106H198.722V105H197.722ZM165.178 105H164.178V106H165.178V105ZM165.178 53.448H166.178V52.448H165.178V53.448ZM164.602 53.448V52.448H164.018L163.731 52.9566L164.602 53.448ZM135.514 105V106H136.098L136.385 105.491L135.514 105ZM100.082 105V3.048H98.0821V105H100.082ZM99.0821 4.048H131.626V2.048H99.0821V4.048ZM130.626 3.048V57.624H132.626V3.048H130.626ZM131.626 58.624H132.202V56.624H131.626V58.624ZM133.079 58.1051L163.031 3.52912L161.277 2.56688L131.325 57.1429L133.079 58.1051ZM162.154 4.048H197.722V2.048H162.154V4.048ZM196.722 3.048V105H198.722V3.048H196.722ZM197.722 104H165.178V106H197.722V104ZM166.178 105V53.448H164.178V105H166.178ZM165.178 52.448H164.602V54.448H165.178V52.448ZM163.731 52.9566L134.643 104.509L136.385 105.491L165.473 53.9394L163.731 52.9566ZM135.514 104H99.0821V106H135.514V104ZM225.281 104.136L224.921 105.069L224.933 105.073L225.281 104.136ZM206.561 92.472L205.793 91.8323L205.177 92.5717L205.892 93.2153L206.561 92.472ZM225.137 70.152L225.878 69.4805L225.105 68.6274L224.369 69.5123L225.137 70.152ZM234.065 77.208L233.607 78.097L233.618 78.1024L234.065 77.208ZM255.089 77.784L254.597 76.9134L254.589 76.9182L254.581 76.9231L255.089 77.784ZM254.657 66.264L255.047 65.343L255.047 65.343L254.657 66.264ZM233.777 64.68H232.777V65.68H233.777V64.68ZM233.777 41.064V40.064H232.777V41.064H233.777ZM227.729 36.168L226.971 36.8205L227.668 37.6296L228.43 36.8814L227.729 36.168ZM209.873 15.432L209.196 14.6967L208.485 15.3519L209.115 16.0845L209.873 15.432ZM281.153 7.65599L280.583 8.47779L280.59 8.48212L280.596 8.48636L281.153 7.65599ZM287.345 42.792L288.139 43.4008L288.139 43.4008L287.345 42.792ZM275.825 51L275.54 50.0416L274.825 50.2544V51H275.825ZM275.825 51.576H274.825V52.3077L275.523 52.5291L275.825 51.576ZM290.081 90.312L289.229 89.789L289.226 89.7946L290.081 90.312ZM280.145 100.248L280.663 101.104L280.663 101.104L280.145 100.248ZM266.753 105.864L266.502 104.896L266.493 104.899L266.484 104.901L266.753 105.864ZM251.921 106.88C240.943 106.88 232.195 105.637 225.629 103.199L224.933 105.073C231.808 107.627 240.82 108.88 251.921 108.88V106.88ZM225.641 103.203C219.043 100.658 212.907 96.8374 207.23 91.7287L205.892 93.2153C211.736 98.4746 218.079 102.43 224.921 105.069L225.641 103.203ZM207.33 93.1117L225.906 70.7917L224.369 69.5123L205.793 91.8323L207.33 93.1117ZM224.396 70.8235C227.248 73.9701 230.317 76.4019 233.607 78.097L234.523 76.319C231.478 74.7501 228.595 72.4779 225.878 69.4805L224.396 70.8235ZM233.618 78.1024C237.067 79.8268 241.459 80.656 246.737 80.656V78.656C241.647 78.656 237.592 77.8532 234.512 76.3136L233.618 78.1024ZM246.737 80.656C250.303 80.656 253.281 80.0138 255.598 78.6449L254.581 76.9231C252.673 78.0502 250.084 78.656 246.737 78.656V80.656ZM255.581 78.6546C258.097 77.2327 259.401 75.0317 259.401 72.168H257.401C257.401 74.2963 256.498 75.8393 254.597 76.9134L255.581 78.6546ZM259.401 72.168C259.401 70.5831 259.057 69.1746 258.31 67.9965C257.56 66.814 256.451 65.937 255.047 65.343L254.268 67.185C255.36 67.647 256.123 68.282 256.621 69.0675C257.122 69.8574 257.401 70.8729 257.401 72.168H259.401ZM255.047 65.343C252.365 64.2085 248.509 63.68 243.569 63.68V65.68C248.422 65.68 251.957 66.2075 254.268 67.185L255.047 65.343ZM243.569 63.68H233.777V65.68H243.569V63.68ZM234.777 64.68V41.064H232.777V64.68H234.777ZM233.777 42.064H245.441V40.064H233.777V42.064ZM245.441 42.064C249.536 42.064 252.768 41.4848 255.009 40.2042C257.334 38.8759 258.537 36.8183 258.537 34.152H256.537C256.537 36.0937 255.725 37.4921 254.017 38.4678C252.226 39.4912 249.411 40.064 245.441 40.064V42.064ZM258.537 34.152C258.537 31.8614 257.586 30.0529 255.689 28.8746C253.871 27.7452 251.272 27.248 248.033 27.248V29.248C251.13 29.248 253.284 29.7348 254.634 30.5734C255.905 31.3631 256.537 32.5066 256.537 34.152H258.537ZM248.033 27.248C239.635 27.248 232.608 29.9748 227.029 35.4545L228.43 36.8814C233.603 31.8012 240.111 29.248 248.033 29.248V27.248ZM228.487 35.5155L210.631 14.7795L209.115 16.0845L226.971 36.8205L228.487 35.5155ZM210.551 16.1673C221.381 6.18517 235.191 1.16799 252.065 1.16799V-0.832006C234.763 -0.832006 220.446 4.32681 209.196 14.6967L210.551 16.1673ZM252.065 1.16799C264.131 1.16799 273.605 3.6392 280.583 8.47779L281.723 6.83419C274.302 1.68879 264.384 -0.832006 252.065 -0.832006V1.16799ZM280.596 8.48636C287.625 13.203 291.097 19.6165 291.097 27.816H293.097C293.097 18.9275 289.274 11.901 281.71 6.82563L280.596 8.48636ZM291.097 27.816C291.097 33.4809 289.569 38.2515 286.552 42.1832L288.139 43.4008C291.457 39.0765 293.097 33.8631 293.097 27.816H291.097ZM286.552 42.1832C283.498 46.1625 279.829 48.7641 275.54 50.0416L276.111 51.9584C280.846 50.5479 284.856 47.6774 288.139 43.4008L286.552 42.1832ZM274.825 51V51.576H276.825V51H274.825ZM275.523 52.5291C281.421 54.4015 285.759 57.2985 288.63 61.1715C291.499 65.0429 292.969 69.9804 292.969 76.056H294.969C294.969 69.6516 293.415 64.2691 290.237 59.9805C287.059 55.6935 282.326 52.5904 276.128 50.6229L275.523 52.5291ZM292.969 76.056C292.969 81.164 291.718 85.7327 289.229 89.789L290.934 90.835C293.629 86.4433 294.969 81.508 294.969 76.056H292.969ZM289.226 89.7946C286.813 93.7841 283.617 96.98 279.628 99.3923L280.663 101.104C284.929 98.524 288.357 95.0959 290.937 90.8294L289.226 89.7946ZM279.628 99.3923C275.585 101.837 271.211 103.672 266.502 104.896L267.005 106.832C271.896 105.56 276.45 103.651 280.663 101.104L279.628 99.3923ZM266.484 104.901C261.773 106.22 256.92 106.88 251.921 106.88V108.88C257.098 108.88 262.133 108.196 267.023 106.827L266.484 104.901ZM307.91 105H306.91V106H307.91V105ZM307.91 3.048V2.048H306.91V3.048H307.91ZM342.182 3.048H343.182V2.048H342.182V3.048ZM342.182 37.608H341.182V38.608H342.182V37.608ZM370.118 37.608V38.608H371.118V37.608H370.118ZM370.118 3.048V2.048H369.118V3.048H370.118ZM404.39 3.048H405.39V2.048H404.39V3.048ZM404.39 105V106H405.39V105H404.39ZM370.118 105H369.118V106H370.118V105ZM370.118 66.264H371.118V65.264H370.118V66.264ZM342.182 66.264V65.264H341.182V66.264H342.182ZM342.182 105V106H343.182V105H342.182ZM308.91 105V3.048H306.91V105H308.91ZM307.91 4.048H342.182V2.048H307.91V4.048ZM341.182 3.048V37.608H343.182V3.048H341.182ZM342.182 38.608H370.118V36.608H342.182V38.608ZM371.118 37.608V3.048H369.118V37.608H371.118ZM370.118 4.048H404.39V2.048H370.118V4.048ZM403.39 3.048V105H405.39V3.048H403.39ZM404.39 104H370.118V106H404.39V104ZM371.118 105V66.264H369.118V105H371.118ZM370.118 65.264H342.182V67.264H370.118V65.264ZM341.182 66.264V105H343.182V66.264H341.182ZM342.182 104H307.91V106H342.182V104ZM423.363 105H422.363V106H423.363V105ZM423.363 3.048V2.048H422.363V3.048H423.363ZM493.491 3.048H494.491V2.048H493.491V3.048ZM493.491 31.56V32.56H494.491V31.56H493.491ZM455.619 31.56V30.56H454.619V31.56H455.619ZM455.619 40.344H454.619V41.344H455.619V40.344ZM491.187 40.344H492.187V39.344H491.187V40.344ZM491.187 66.984V67.984H492.187V66.984H491.187ZM455.619 66.984V65.984H454.619V66.984H455.619ZM455.619 76.488H454.619V77.488H455.619V76.488ZM495.939 76.488H496.939V75.488H495.939V76.488ZM495.939 105V106H496.939V105H495.939ZM424.363 105V3.048H422.363V105H424.363ZM423.363 4.048H493.491V2.048H423.363V4.048ZM492.491 3.048V31.56H494.491V3.048H492.491ZM493.491 30.56H455.619V32.56H493.491V30.56ZM454.619 31.56V40.344H456.619V31.56H454.619ZM455.619 41.344H491.187V39.344H455.619V41.344ZM490.187 40.344V66.984H492.187V40.344H490.187ZM491.187 65.984H455.619V67.984H491.187V65.984ZM454.619 66.984V76.488H456.619V66.984H454.619ZM455.619 77.488H495.939V75.488H455.619V77.488ZM494.939 76.488V105H496.939V76.488H494.939ZM495.939 104H423.363V106H495.939V104ZM521.505 92.904L520.818 93.6305L520.821 93.6337L521.505 92.904ZM521.361 15.144L522.045 15.8739L522.045 15.8737L521.361 15.144ZM583.137 4.05599L582.79 4.9939L582.798 4.99674L582.806 4.99946L583.137 4.05599ZM600.849 14.28L601.619 14.9185L602.226 14.1866L601.525 13.5435L600.849 14.28ZM579.825 39.624L579.02 40.2167L579.778 41.2471L580.595 40.2625L579.825 39.624ZM548.289 38.04L549.005 38.7385L548.289 38.04ZM548.289 69.72L547.573 70.4186L547.582 70.4271L548.289 69.72ZM579.825 67.56L580.593 66.9194L579.756 65.9168L579.006 66.9856L579.825 67.56ZM600.849 92.76L601.556 93.4671L602.202 92.821L601.617 92.1194L600.849 92.76ZM560.961 106.88C545.547 106.88 532.645 101.971 522.189 92.1743L520.821 93.6337C531.677 103.805 545.079 108.88 560.961 108.88V106.88ZM522.192 92.1775C511.753 82.3026 506.521 69.6136 506.521 54.024H504.521C504.521 70.1144 509.945 83.3454 520.818 93.6305L522.192 92.1775ZM506.521 54.024C506.521 38.2355 511.709 25.5513 522.045 15.8739L520.678 14.414C509.893 24.5126 504.521 37.7485 504.521 54.024H506.521ZM522.045 15.8737C532.5 6.07767 545.449 1.16799 560.961 1.16799V-0.832006C544.985 -0.832006 531.534 4.24232 520.677 14.4143L522.045 15.8737ZM560.961 1.16799C568.623 1.16799 575.898 2.44463 582.79 4.9939L583.484 3.11809C576.36 0.483359 568.851 -0.832006 560.961 -0.832006V1.16799ZM582.806 4.99946C589.804 7.45847 595.585 10.803 600.173 15.0165L601.525 13.5435C596.705 9.11695 590.678 5.64552 583.468 3.11253L582.806 4.99946ZM600.079 13.6415L579.055 38.9855L580.595 40.2625L601.619 14.9185L600.079 13.6415ZM580.63 39.0313C576.662 33.6378 570.716 30.992 562.977 30.992V32.992C570.214 32.992 575.5 35.4342 579.02 40.2167L580.63 39.0313ZM562.977 30.992C556.863 30.992 551.706 33.1084 547.573 37.3415L549.005 38.7385C552.744 34.9076 557.379 32.992 562.977 32.992V30.992ZM547.573 37.3415C543.423 41.5927 541.385 47.1881 541.385 54.024H543.385C543.385 47.6119 545.283 42.5513 549.005 38.7385L547.573 37.3415ZM541.385 54.024C541.385 60.677 543.429 66.1729 547.573 70.4185L549.005 69.0215C545.277 65.2031 543.385 60.235 543.385 54.024H541.385ZM547.582 70.4271C551.804 74.6488 556.955 76.768 562.977 76.768V74.768C557.479 74.768 552.838 72.8552 548.996 69.0129L547.582 70.4271ZM562.977 76.768C570.655 76.768 576.594 73.9045 580.644 68.1344L579.006 66.9856C575.376 72.1595 570.083 74.768 562.977 74.768V76.768ZM579.057 68.2006L600.081 93.4006L601.617 92.1194L580.593 66.9194L579.057 68.2006ZM600.142 92.0529C590.279 101.916 577.253 106.88 560.961 106.88V108.88C577.693 108.88 591.259 103.764 601.556 93.4671L600.142 92.0529Z" fill="url(#paint0_linear_2_42)"/>
<path d="M0.504 105H-0.496V106H0.504V105ZM0.504 3.048V2.048H-0.496V3.048H0.504ZM78.408 3.048H79.408V2.048H78.408V3.048ZM78.408 30.264V31.264H79.408V30.264H78.408ZM33.624 30.264V29.264H32.624V30.264H33.624ZM33.624 39.192H32.624V40.192H33.624V39.192ZM61.272 40.92L61.0246 41.8889L61.0343 41.8914L61.0441 41.8937L61.272 40.92ZM73.8 46.104L73.27 46.952L73.2777 46.9568L73.2855 46.9615L73.8 46.104ZM80.136 91.032L79.3466 90.4181L79.345 90.4201L80.136 91.032ZM65.592 101.832L65.2477 100.893L65.2477 100.893L65.592 101.832ZM33.624 78.648H32.624V79.648H33.624V78.648ZM49.032 76.92L49.5867 77.7521L49.5967 77.7453L49.032 76.92ZM33.624 64.104V63.104H32.624V64.104H33.624ZM1.504 105V3.048H-0.496V105H1.504ZM0.504 4.048H78.408V2.048H0.504V4.048ZM77.408 3.048V30.264H79.408V3.048H77.408ZM78.408 29.264H33.624V31.264H78.408V29.264ZM32.624 30.264V39.192H34.624V30.264H32.624ZM33.624 40.192H46.44V38.192H33.624V40.192ZM46.44 40.192C51.7451 40.192 56.6048 40.7604 61.0246 41.8889L61.5194 39.9511C56.9152 38.7756 51.8869 38.192 46.44 38.192V40.192ZM61.0441 41.8937C65.4517 42.9253 69.5253 44.6116 73.27 46.952L74.33 45.256C70.3947 42.7964 66.1163 41.0267 61.4999 39.9463L61.0441 41.8937ZM73.2855 46.9615C76.9459 49.1577 79.8456 52.3673 81.9776 56.6312L83.7664 55.7368C81.4824 51.1687 78.3341 47.6582 74.3145 45.2465L73.2855 46.9615ZM81.9776 56.6312C84.1023 60.8806 85.184 65.9529 85.184 71.88H87.184C87.184 65.7111 86.0577 60.3194 83.7664 55.7368L81.9776 56.6312ZM85.184 71.88C85.184 79.2776 83.2216 85.436 79.3467 90.4181L80.9254 91.6459C85.1144 86.26 87.184 79.6504 87.184 71.88H85.184ZM79.345 90.4201C75.5183 95.3668 70.8223 98.8491 65.2477 100.893L65.9363 102.771C71.8817 100.591 76.8817 96.8732 80.927 91.6439L79.345 90.4201ZM65.2477 100.893C59.6125 102.959 53.3471 104 46.44 104V106C53.549 106 60.0515 104.929 65.9363 102.771L65.2477 100.893ZM46.44 104H0.504V106H46.44V104ZM33.624 79.648H42.552V77.648H33.624V79.648ZM42.552 79.648C45.2923 79.648 47.6579 79.0379 49.5867 77.752L48.4773 76.0879C46.9501 77.1061 44.9957 77.648 42.552 77.648V79.648ZM49.5967 77.7453C51.7432 76.2767 52.768 74.0164 52.768 71.16H50.768C50.768 73.4876 49.9688 75.0673 48.4673 76.0947L49.5967 77.7453ZM52.768 71.16C52.768 68.5716 51.909 66.4805 50.0719 65.074C48.2853 63.7062 45.7234 63.104 42.552 63.104V65.104C45.5246 65.104 47.5707 65.6778 48.8561 66.662C50.091 67.6075 50.768 69.0443 50.768 71.16H52.768ZM42.552 63.104H33.624V65.104H42.552V63.104ZM32.624 64.104V78.648H34.624V64.104H32.624ZM99.0821 105H98.0821V106H99.0821V105ZM99.0821 3.048V2.048H98.0821V3.048H99.0821ZM131.626 3.048H132.626V2.048H131.626V3.048ZM131.626 57.624H130.626V58.624H131.626V57.624ZM132.202 57.624V58.624H132.794L133.079 58.1051L132.202 57.624ZM162.154 3.048V2.048H161.562L161.277 2.56688L162.154 3.048ZM197.722 3.048H198.722V2.048H197.722V3.048ZM197.722 105V106H198.722V105H197.722ZM165.178 105H164.178V106H165.178V105ZM165.178 53.448H166.178V52.448H165.178V53.448ZM164.602 53.448V52.448H164.018L163.731 52.9566L164.602 53.448ZM135.514 105V106H136.098L136.385 105.491L135.514 105ZM100.082 105V3.048H98.0821V105H100.082ZM99.0821 4.048H131.626V2.048H99.0821V4.048ZM130.626 3.048V57.624H132.626V3.048H130.626ZM131.626 58.624H132.202V56.624H131.626V58.624ZM133.079 58.1051L163.031 3.52912L161.277 2.56688L131.325 57.1429L133.079 58.1051ZM162.154 4.048H197.722V2.048H162.154V4.048ZM196.722 3.048V105H198.722V3.048H196.722ZM197.722 104H165.178V106H197.722V104ZM166.178 105V53.448H164.178V105H166.178ZM165.178 52.448H164.602V54.448H165.178V52.448ZM163.731 52.9566L134.643 104.509L136.385 105.491L165.473 53.9394L163.731 52.9566ZM135.514 104H99.0821V106H135.514V104ZM225.281 104.136L224.921 105.069L224.933 105.073L225.281 104.136ZM206.561 92.472L205.793 91.8323L205.177 92.5717L205.892 93.2153L206.561 92.472ZM225.137 70.152L225.878 69.4805L225.105 68.6274L224.369 69.5123L225.137 70.152ZM234.065 77.208L233.607 78.097L233.618 78.1024L234.065 77.208ZM255.089 77.784L254.597 76.9134L254.589 76.9182L254.581 76.9231L255.089 77.784ZM254.657 66.264L255.047 65.343L255.047 65.343L254.657 66.264ZM233.777 64.68H232.777V65.68H233.777V64.68ZM233.777 41.064V40.064H232.777V41.064H233.777ZM227.729 36.168L226.971 36.8205L227.668 37.6296L228.43 36.8814L227.729 36.168ZM209.873 15.432L209.196 14.6967L208.485 15.3519L209.115 16.0845L209.873 15.432ZM281.153 7.65599L280.583 8.47779L280.59 8.48212L280.596 8.48636L281.153 7.65599ZM287.345 42.792L288.139 43.4008L288.139 43.4008L287.345 42.792ZM275.825 51L275.54 50.0416L274.825 50.2544V51H275.825ZM275.825 51.576H274.825V52.3077L275.523 52.5291L275.825 51.576ZM290.081 90.312L289.229 89.789L289.226 89.7946L290.081 90.312ZM280.145 100.248L280.663 101.104L280.663 101.104L280.145 100.248ZM266.753 105.864L266.502 104.896L266.493 104.899L266.484 104.901L266.753 105.864ZM251.921 106.88C240.943 106.88 232.195 105.637 225.629 103.199L224.933 105.073C231.808 107.627 240.82 108.88 251.921 108.88V106.88ZM225.641 103.203C219.043 100.658 212.907 96.8374 207.23 91.7287L205.892 93.2153C211.736 98.4746 218.079 102.43 224.921 105.069L225.641 103.203ZM207.33 93.1117L225.906 70.7917L224.369 69.5123L205.793 91.8323L207.33 93.1117ZM224.396 70.8235C227.248 73.9701 230.317 76.4019 233.607 78.097L234.523 76.319C231.478 74.7501 228.595 72.4779 225.878 69.4805L224.396 70.8235ZM233.618 78.1024C237.067 79.8268 241.459 80.656 246.737 80.656V78.656C241.647 78.656 237.592 77.8532 234.512 76.3136L233.618 78.1024ZM246.737 80.656C250.303 80.656 253.281 80.0138 255.598 78.6449L254.581 76.9231C252.673 78.0502 250.084 78.656 246.737 78.656V80.656ZM255.581 78.6546C258.097 77.2327 259.401 75.0317 259.401 72.168H257.401C257.401 74.2963 256.498 75.8393 254.597 76.9134L255.581 78.6546ZM259.401 72.168C259.401 70.5831 259.057 69.1746 258.31 67.9965C257.56 66.814 256.451 65.937 255.047 65.343L254.268 67.185C255.36 67.647 256.123 68.282 256.621 69.0675C257.122 69.8574 257.401 70.8729 257.401 72.168H259.401ZM255.047 65.343C252.365 64.2085 248.509 63.68 243.569 63.68V65.68C248.422 65.68 251.957 66.2075 254.268 67.185L255.047 65.343ZM243.569 63.68H233.777V65.68H243.569V63.68ZM234.777 64.68V41.064H232.777V64.68H234.777ZM233.777 42.064H245.441V40.064H233.777V42.064ZM245.441 42.064C249.536 42.064 252.768 41.4848 255.009 40.2042C257.334 38.8759 258.537 36.8183 258.537 34.152H256.537C256.537 36.0937 255.725 37.4921 254.017 38.4678C252.226 39.4912 249.411 40.064 245.441 40.064V42.064ZM258.537 34.152C258.537 31.8614 257.586 30.0529 255.689 28.8746C253.871 27.7452 251.272 27.248 248.033 27.248V29.248C251.13 29.248 253.284 29.7348 254.634 30.5734C255.905 31.3631 256.537 32.5066 256.537 34.152H258.537ZM248.033 27.248C239.635 27.248 232.608 29.9748 227.029 35.4545L228.43 36.8814C233.603 31.8012 240.111 29.248 248.033 29.248V27.248ZM228.487 35.5155L210.631 14.7795L209.115 16.0845L226.971 36.8205L228.487 35.5155ZM210.551 16.1673C221.381 6.18517 235.191 1.16799 252.065 1.16799V-0.832006C234.763 -0.832006 220.446 4.32681 209.196 14.6967L210.551 16.1673ZM252.065 1.16799C264.131 1.16799 273.605 3.6392 280.583 8.47779L281.723 6.83419C274.302 1.68879 264.384 -0.832006 252.065 -0.832006V1.16799ZM280.596 8.48636C287.625 13.203 291.097 19.6165 291.097 27.816H293.097C293.097 18.9275 289.274 11.901 281.71 6.82563L280.596 8.48636ZM291.097 27.816C291.097 33.4809 289.569 38.2515 286.552 42.1832L288.139 43.4008C291.457 39.0765 293.097 33.8631 293.097 27.816H291.097ZM286.552 42.1832C283.498 46.1625 279.829 48.7641 275.54 50.0416L276.111 51.9584C280.846 50.5479 284.856 47.6774 288.139 43.4008L286.552 42.1832ZM274.825 51V51.576H276.825V51H274.825ZM275.523 52.5291C281.421 54.4015 285.759 57.2985 288.63 61.1715C291.499 65.0429 292.969 69.9804 292.969 76.056H294.969C294.969 69.6516 293.415 64.2691 290.237 59.9805C287.059 55.6935 282.326 52.5904 276.128 50.6229L275.523 52.5291ZM292.969 76.056C292.969 81.164 291.718 85.7327 289.229 89.789L290.934 90.835C293.629 86.4433 294.969 81.508 294.969 76.056H292.969ZM289.226 89.7946C286.813 93.7841 283.617 96.98 279.628 99.3923L280.663 101.104C284.929 98.524 288.357 95.0959 290.937 90.8294L289.226 89.7946ZM279.628 99.3923C275.585 101.837 271.211 103.672 266.502 104.896L267.005 106.832C271.896 105.56 276.45 103.651 280.663 101.104L279.628 99.3923ZM266.484 104.901C261.773 106.22 256.92 106.88 251.921 106.88V108.88C257.098 108.88 262.133 108.196 267.023 106.827L266.484 104.901ZM307.91 105H306.91V106H307.91V105ZM307.91 3.048V2.048H306.91V3.048H307.91ZM342.182 3.048H343.182V2.048H342.182V3.048ZM342.182 37.608H341.182V38.608H342.182V37.608ZM370.118 37.608V38.608H371.118V37.608H370.118ZM370.118 3.048V2.048H369.118V3.048H370.118ZM404.39 3.048H405.39V2.048H404.39V3.048ZM404.39 105V106H405.39V105H404.39ZM370.118 105H369.118V106H370.118V105ZM370.118 66.264H371.118V65.264H370.118V66.264ZM342.182 66.264V65.264H341.182V66.264H342.182ZM342.182 105V106H343.182V105H342.182ZM308.91 105V3.048H306.91V105H308.91ZM307.91 4.048H342.182V2.048H307.91V4.048ZM341.182 3.048V37.608H343.182V3.048H341.182ZM342.182 38.608H370.118V36.608H342.182V38.608ZM371.118 37.608V3.048H369.118V37.608H371.118ZM370.118 4.048H404.39V2.048H370.118V4.048ZM403.39 3.048V105H405.39V3.048H403.39ZM404.39 104H370.118V106H404.39V104ZM371.118 105V66.264H369.118V105H371.118ZM370.118 65.264H342.182V67.264H370.118V65.264ZM341.182 66.264V105H343.182V66.264H341.182ZM342.182 104H307.91V106H342.182V104ZM423.363 105H422.363V106H423.363V105ZM423.363 3.048V2.048H422.363V3.048H423.363ZM493.491 3.048H494.491V2.048H493.491V3.048ZM493.491 31.56V32.56H494.491V31.56H493.491ZM455.619 31.56V30.56H454.619V31.56H455.619ZM455.619 40.344H454.619V41.344H455.619V40.344ZM491.187 40.344H492.187V39.344H491.187V40.344ZM491.187 66.984V67.984H492.187V66.984H491.187ZM455.619 66.984V65.984H454.619V66.984H455.619ZM455.619 76.488H454.619V77.488H455.619V76.488ZM495.939 76.488H496.939V75.488H495.939V76.488ZM495.939 105V106H496.939V105H495.939ZM424.363 105V3.048H422.363V105H424.363ZM423.363 4.048H493.491V2.048H423.363V4.048ZM492.491 3.048V31.56H494.491V3.048H492.491ZM493.491 30.56H455.619V32.56H493.491V30.56ZM454.619 31.56V40.344H456.619V31.56H454.619ZM455.619 41.344H491.187V39.344H455.619V41.344ZM490.187 40.344V66.984H492.187V40.344H490.187ZM491.187 65.984H455.619V67.984H491.187V65.984ZM454.619 66.984V76.488H456.619V66.984H454.619ZM455.619 77.488H495.939V75.488H455.619V77.488ZM494.939 76.488V105H496.939V76.488H494.939ZM495.939 104H423.363V106H495.939V104ZM521.505 92.904L520.818 93.6305L520.821 93.6337L521.505 92.904ZM521.361 15.144L522.045 15.8739L522.045 15.8737L521.361 15.144ZM583.137 4.05599L582.79 4.9939L582.798 4.99674L582.806 4.99946L583.137 4.05599ZM600.849 14.28L601.619 14.9185L602.226 14.1866L601.525 13.5435L600.849 14.28ZM579.825 39.624L579.02 40.2167L579.778 41.2471L580.595 40.2625L579.825 39.624ZM548.289 38.04L549.005 38.7385L548.289 38.04ZM548.289 69.72L547.573 70.4186L547.582 70.4271L548.289 69.72ZM579.825 67.56L580.593 66.9194L579.756 65.9168L579.006 66.9856L579.825 67.56ZM600.849 92.76L601.556 93.4671L602.202 92.821L601.617 92.1194L600.849 92.76ZM560.961 106.88C545.547 106.88 532.645 101.971 522.189 92.1743L520.821 93.6337C531.677 103.805 545.079 108.88 560.961 108.88V106.88ZM522.192 92.1775C511.753 82.3026 506.521 69.6136 506.521 54.024H504.521C504.521 70.1144 509.945 83.3454 520.818 93.6305L522.192 92.1775ZM506.521 54.024C506.521 38.2355 511.709 25.5513 522.045 15.8739L520.678 14.414C509.893 24.5126 504.521 37.7485 504.521 54.024H506.521ZM522.045 15.8737C532.5 6.07767 545.449 1.16799 560.961 1.16799V-0.832006C544.985 -0.832006 531.534 4.24232 520.677 14.4143L522.045 15.8737ZM560.961 1.16799C568.623 1.16799 575.898 2.44463 582.79 4.9939L583.484 3.11809C576.36 0.483359 568.851 -0.832006 560.961 -0.832006V1.16799ZM582.806 4.99946C589.804 7.45847 595.585 10.803 600.173 15.0165L601.525 13.5435C596.705 9.11695 590.678 5.64552 583.468 3.11253L582.806 4.99946ZM600.079 13.6415L579.055 38.9855L580.595 40.2625L601.619 14.9185L600.079 13.6415ZM580.63 39.0313C576.662 33.6378 570.716 30.992 562.977 30.992V32.992C570.214 32.992 575.5 35.4342 579.02 40.2167L580.63 39.0313ZM562.977 30.992C556.863 30.992 551.706 33.1084 547.573 37.3415L549.005 38.7385C552.744 34.9076 557.379 32.992 562.977 32.992V30.992ZM547.573 37.3415C543.423 41.5927 541.385 47.1881 541.385 54.024H543.385C543.385 47.6119 545.283 42.5513 549.005 38.7385L547.573 37.3415ZM541.385 54.024C541.385 60.677 543.429 66.1729 547.573 70.4185L549.005 69.0215C545.277 65.2031 543.385 60.235 543.385 54.024H541.385ZM547.582 70.4271C551.804 74.6488 556.955 76.768 562.977 76.768V74.768C557.479 74.768 552.838 72.8552 548.996 69.0129L547.582 70.4271ZM562.977 76.768C570.655 76.768 576.594 73.9045 580.644 68.1344L579.006 66.9856C575.376 72.1595 570.083 74.768 562.977 74.768V76.768ZM579.057 68.2006L600.081 93.4006L601.617 92.1194L580.593 66.9194L579.057 68.2006ZM600.142 92.0529C590.279 101.916 577.253 106.88 560.961 106.88V108.88C577.693 108.88 591.259 103.764 601.556 93.4671L600.142 92.0529Z" fill="black" fill-opacity="0.2"/>
<defs>
<linearGradient id="paint0_linear_2_42" x1="296" y1="28" x2="296" y2="103.49" gradientUnits="userSpaceOnUse">
<stop stop-color="#979797"/>
<stop offset="1" stop-color="#979797" stop-opacity="0"/>
</linearGradient>
</defs>
</svg>
