<svg width="1283" height="155" viewBox="0 0 1283 155" fill="none" xmlns="http://www.w3.org/2000/svg">
<path d="M0.576 134.28L-0.420993 134.203L-0.486484 135.045L0.333464 135.25L0.576 134.28ZM2.736 106.488L3.05223 105.539L1.83817 105.135L1.73901 106.411L2.736 106.488ZM13.68 106.488L13.2861 105.569L13.68 106.488ZM17.856 102.888L18.6409 103.508H18.6409L17.856 102.888ZM21.024 93.96L20.0409 93.7771L20.0388 93.7882L20.037 93.7993L21.024 93.96ZM22.176 33.048V32.048H21.176V33.048H22.176ZM110.016 33.048H111.016V32.048H110.016V33.048ZM110.016 135V136H111.016V135H110.016ZM75.744 135H74.744V136H75.744V135ZM75.744 61.704H76.744V60.704H75.744V61.704ZM55.008 61.704V60.704H54.008V61.704H55.008ZM52.704 104.04L53.6867 104.225L53.6871 104.223L52.704 104.04ZM45.504 123.336L46.3201 123.914L46.3256 123.906L45.504 123.336ZM33.984 133.128L34.3827 134.045L33.984 133.128ZM17.712 135.008C10.9456 135.008 5.32112 134.436 0.818536 133.31L0.333464 135.25C5.04688 136.428 10.8464 137.008 17.712 137.008V135.008ZM1.57299 134.357L3.73299 106.565L1.73901 106.411L-0.420993 134.203L1.57299 134.357ZM2.41977 107.437C4.27263 108.054 6.39965 108.352 8.784 108.352V106.352C6.56035 106.352 4.65537 106.074 3.05223 105.539L2.41977 107.437ZM8.784 108.352C10.7991 108.352 12.5731 108.05 14.0739 107.407L13.2861 105.569C12.0989 106.078 10.6089 106.352 8.784 106.352V108.352ZM14.0739 107.407C15.6359 106.738 17.1524 105.393 18.6409 103.508L17.0711 102.268C15.6796 104.031 14.4121 105.086 13.2861 105.569L14.0739 107.407ZM18.6409 103.508C20.2401 101.482 21.3304 98.3017 22.011 94.1207L20.037 93.7993C19.3736 97.8743 18.3519 100.646 17.0711 102.268L18.6409 103.508ZM22.0071 94.1429C22.7905 89.9325 23.176 84.6338 23.176 78.264H21.176C21.176 84.5662 20.7935 89.7315 20.0409 93.7771L22.0071 94.1429ZM23.176 78.264V33.048H21.176V78.264H23.176ZM22.176 34.048H110.016V32.048H22.176V34.048ZM109.016 33.048V135H111.016V33.048H109.016ZM110.016 134H75.744V136H110.016V134ZM76.744 135V61.704H74.744V135H76.744ZM75.744 60.704H55.008V62.704H75.744V60.704ZM54.008 61.704V73.224H56.008V61.704H54.008ZM54.008 73.224C54.008 85.476 53.2418 95.6821 51.7209 103.857L53.6871 104.223C55.2382 95.8859 56.008 85.5479 56.008 73.224H54.008ZM51.7213 103.855C50.2005 111.934 47.8385 118.217 44.6824 122.766L46.3256 123.906C49.6975 119.047 52.1355 112.466 53.6867 104.225L51.7213 103.855ZM44.688 122.758C41.5111 127.243 37.8068 130.375 33.5853 132.211L34.3827 134.045C38.9932 132.041 42.9689 128.645 46.32 123.914L44.688 122.758ZM33.5853 132.211C29.3297 134.061 24.0504 135.008 17.712 135.008V137.008C24.2376 137.008 29.8063 136.035 34.3827 134.045L33.5853 132.211ZM129.035 135H128.035V136H129.035V135ZM129.035 33.048V32.048H128.035V33.048H129.035ZM161.579 33.048H162.579V32.048H161.579V33.048ZM161.579 87.624H160.579V88.624H161.579V87.624ZM162.155 87.624V88.624H162.747L163.032 88.1051L162.155 87.624ZM192.107 33.048V32.048H191.515L191.231 32.5669L192.107 33.048ZM227.675 33.048H228.675V32.048H227.675V33.048ZM227.675 135V136H228.675V135H227.675ZM195.131 135H194.131V136H195.131V135ZM195.131 83.448H196.131V82.448H195.131V83.448ZM194.555 83.448V82.448H193.971L193.684 82.9566L194.555 83.448ZM165.467 135V136H166.051L166.338 135.491L165.467 135ZM130.035 135V33.048H128.035V135H130.035ZM129.035 34.048H161.579V32.048H129.035V34.048ZM160.579 33.048V87.624H162.579V33.048H160.579ZM161.579 88.624H162.155V86.624H161.579V88.624ZM163.032 88.1051L192.984 33.5291L191.231 32.5669L161.279 87.1429L163.032 88.1051ZM192.107 34.048H227.675V32.048H192.107V34.048ZM226.675 33.048V135H228.675V33.048H226.675ZM227.675 134H195.131V136H227.675V134ZM196.131 135V83.448H194.131V135H196.131ZM195.131 82.448H194.555V84.448H195.131V82.448ZM193.684 82.9566L164.596 134.509L166.338 135.491L195.426 83.9394L193.684 82.9566ZM165.467 134H129.035V136H165.467V134ZM301.314 135H300.314V136H301.314V135ZM301.314 100.44H302.314V99.1322L301.052 99.475L301.314 100.44ZM252.786 96.264L253.447 95.513L252.786 96.264ZM244.434 33.048V32.048H243.434V33.048H244.434ZM278.13 33.048H279.13V32.048H278.13V33.048ZM280.866 73.512L280.159 74.2191L280.178 74.2377L280.197 74.2553L280.866 73.512ZM301.314 73.944L301.8 74.8182L302.314 74.5324V73.944H301.314ZM301.314 33.048V32.048H300.314V33.048H301.314ZM335.586 33.048H336.586V32.048H335.586V33.048ZM335.586 135V136H336.586V135H335.586ZM302.314 135V100.44H300.314V135H302.314ZM301.052 99.475C293.35 101.567 285.999 102.608 278.994 102.608V104.608C286.198 104.608 293.726 103.537 301.576 101.405L301.052 99.475ZM278.994 102.608C267.195 102.608 258.75 100.176 253.447 95.513L252.126 97.015C257.959 102.144 266.986 104.608 278.994 104.608V102.608ZM253.447 95.513C248.182 90.884 245.434 83.2547 245.434 72.36H243.434C243.434 83.5453 246.254 91.852 252.126 97.015L253.447 95.513ZM245.434 72.36V33.048H243.434V72.36H245.434ZM244.434 34.048H278.13V32.048H244.434V34.048ZM277.13 33.048V62.568H279.13V33.048H277.13ZM277.13 62.568C277.13 65.3523 277.362 67.7202 277.844 69.6505C278.325 71.5748 279.073 73.1332 280.159 74.2191L281.573 72.8049C280.835 72.0668 280.215 70.8892 279.785 69.1655C279.355 67.4478 279.13 65.2557 279.13 62.568H277.13ZM280.197 74.2553C282.399 76.2368 285.978 77.104 290.658 77.104V75.104C286.122 75.104 283.174 74.2432 281.535 72.7687L280.197 74.2553ZM290.658 77.104C295.259 77.104 299.002 76.3728 301.8 74.8182L300.829 73.0698C298.443 74.3952 295.082 75.104 290.658 75.104V77.104ZM302.314 73.944V33.048H300.314V73.944H302.314ZM301.314 34.048H335.586V32.048H301.314V34.048ZM334.586 33.048V135H336.586V33.048H334.586ZM335.586 134H301.314V136H335.586V134ZM354.598 135H353.598V136H354.598V135ZM354.598 33.048V32.048H353.598V33.048H354.598ZM388.87 33.048H389.87V32.048H388.87V33.048ZM388.87 67.608H387.87V68.608H388.87V67.608ZM416.806 67.608V68.608H417.806V67.608H416.806ZM416.806 33.048V32.048H415.806V33.048H416.806ZM451.078 33.048H452.078V32.048H451.078V33.048ZM451.078 135V136H452.078V135H451.078ZM416.806 135H415.806V136H416.806V135ZM416.806 96.264H417.806V95.264H416.806V96.264ZM388.87 96.264V95.264H387.87V96.264H388.87ZM388.87 135V136H389.87V135H388.87ZM355.598 135V33.048H353.598V135H355.598ZM354.598 34.048H388.87V32.048H354.598V34.048ZM387.87 33.048V67.608H389.87V33.048H387.87ZM388.87 68.608H416.806V66.608H388.87V68.608ZM417.806 67.608V33.048H415.806V67.608H417.806ZM416.806 34.048H451.078V32.048H416.806V34.048ZM450.078 33.048V135H452.078V33.048H450.078ZM451.078 134H416.806V136H451.078V134ZM417.806 135V96.264H415.806V135H417.806ZM416.806 95.264H388.87V97.264H416.806V95.264ZM387.87 96.264V135H389.87V96.264H387.87ZM388.87 134H354.598V136H388.87V134ZM470.051 135H469.051V136H470.051V135ZM470.051 33.048V32.048H469.051V33.048H470.051ZM504.323 33.048H505.323V32.048H504.323V33.048ZM504.323 65.88H503.323V66.88H504.323V65.88ZM529.523 67.608L529.761 66.6367L529.523 67.608ZM542.627 73.08L542.101 73.9303L542.109 73.9357L542.627 73.08ZM552.275 83.736L551.38 84.1832L552.275 83.736ZM549.395 120.312L548.603 119.701L548.602 119.703L549.395 120.312ZM534.131 131.688L534.474 132.627L534.131 131.688ZM504.323 108.36H503.323V109.36H504.323V108.36ZM518.867 106.344L519.422 107.176L519.435 107.167L519.448 107.158L518.867 106.344ZM504.323 91.944V90.944H503.323V91.944H504.323ZM565.379 135H564.379V136H565.379V135ZM565.379 33.048V32.048H564.379V33.048H565.379ZM599.651 33.048H600.651V32.048H599.651V33.048ZM599.651 135V136H600.651V135H599.651ZM471.051 135V33.048H469.051V135H471.051ZM470.051 34.048H504.323V32.048H470.051V34.048ZM503.323 33.048V65.88H505.323V33.048H503.323ZM504.323 66.88H513.971V64.88H504.323V66.88ZM513.971 66.88C519.568 66.88 524.671 67.4493 529.285 68.5793L529.761 66.6367C524.967 65.4627 519.702 64.88 513.971 64.88V66.88ZM529.285 68.5793C533.889 69.7069 538.16 71.4907 542.101 73.9303L543.153 72.2297C539.03 69.6773 534.564 67.8131 529.761 66.6367L529.285 68.5793ZM542.109 73.9357C546.065 76.3272 549.155 79.7323 551.38 84.1832L553.169 83.2888C550.787 78.5237 547.445 74.8248 543.144 72.2243L542.109 73.9357ZM551.38 84.1832C553.601 88.6241 554.731 93.9362 554.731 100.152H556.731C556.731 93.6958 555.557 88.0639 553.169 83.2888L551.38 84.1832ZM554.731 100.152C554.731 107.934 552.672 114.43 548.603 119.701L550.186 120.923C554.566 115.25 556.731 108.306 556.731 100.152H554.731ZM548.602 119.703C544.583 124.937 539.648 128.609 533.788 130.749L534.474 132.627C540.71 130.351 545.951 126.439 550.188 120.921L548.602 119.703ZM533.788 130.749C527.865 132.911 521.263 134 513.971 134V136C521.463 136 528.301 134.881 534.474 132.627L533.788 130.749ZM513.971 134H470.051V136H513.971V134ZM504.323 109.36H511.523V107.36H504.323V109.36ZM511.523 109.36C514.562 109.36 517.212 108.649 519.422 107.176L518.312 105.512C516.489 106.727 514.243 107.36 511.523 107.36V109.36ZM519.448 107.158C521.772 105.498 522.891 103.007 522.891 99.864H520.891C520.891 102.481 519.993 104.31 518.286 105.53L519.448 107.158ZM522.891 99.864C522.891 96.9868 521.935 94.6796 519.906 93.1293C517.927 91.618 515.078 90.944 511.523 90.944V92.944C514.88 92.944 517.214 93.59 518.692 94.7187C520.118 95.8084 520.891 97.4612 520.891 99.864H522.891ZM511.523 90.944H504.323V92.944H511.523V90.944ZM503.323 91.944V108.36H505.323V91.944H503.323ZM566.379 135V33.048H564.379V135H566.379ZM565.379 34.048H599.651V32.048H565.379V34.048ZM598.651 33.048V135H600.651V33.048H598.651ZM599.651 134H565.379V136H599.651V134ZM618.692 135H617.692V136H618.692V135ZM618.692 33.048V32.048H617.692V33.048H618.692ZM651.235 33.048H652.235V32.048H651.235V33.048ZM651.235 87.624H650.235V88.624H651.235V87.624ZM651.812 87.624V88.624H652.403L652.688 88.1051L651.812 87.624ZM681.763 33.048V32.048H681.172L680.887 32.5669L681.763 33.048ZM717.331 33.048H718.331V32.048H717.331V33.048ZM717.331 135V136H718.331V135H717.331ZM684.787 135H683.787V136H684.787V135ZM684.787 83.448H685.787V82.448H684.787V83.448ZM684.211 83.448V82.448H683.628L683.341 82.9566L684.211 83.448ZM655.123 135V136H655.707L655.994 135.491L655.123 135ZM695.588 3.81599L696.57 4.00188L696.755 3.02451L695.779 2.83442L695.588 3.81599ZM639.427 3.81599L639.236 2.83442L638.26 3.02451L638.445 4.00188L639.427 3.81599ZM655.7 0.647995L656.694 0.543312L656.58 -0.542156L655.508 -0.333572L655.7 0.647995ZM679.315 0.647995L679.507 -0.333572L678.435 -0.542156L678.321 0.543312L679.315 0.647995ZM619.692 135V33.048H617.692V135H619.692ZM618.692 34.048H651.235V32.048H618.692V34.048ZM650.235 33.048V87.624H652.235V33.048H650.235ZM651.235 88.624H651.812V86.624H651.235V88.624ZM652.688 88.1051L682.64 33.5291L680.887 32.5669L650.935 87.1429L652.688 88.1051ZM681.763 34.048H717.331V32.048H681.763V34.048ZM716.331 33.048V135H718.331V33.048H716.331ZM717.331 134H684.787V136H717.331V134ZM685.787 135V83.448H683.787V135H685.787ZM684.787 82.448H684.211V84.448H684.787V82.448ZM683.341 82.9566L654.253 134.509L655.994 135.491L685.082 83.9394L683.341 82.9566ZM655.123 134H618.692V136H655.123V134ZM694.605 3.6301C693.296 10.5494 690.387 15.6337 685.947 19.0034C681.494 22.3828 675.384 24.128 667.508 24.128V26.128C675.663 26.128 682.249 24.3212 687.156 20.5965C692.076 16.8623 695.191 11.2906 696.57 4.00188L694.605 3.6301ZM667.508 24.128C659.631 24.128 653.521 22.3828 649.068 19.0034C644.628 15.6337 641.719 10.5494 640.41 3.6301L638.445 4.00188C639.824 11.2906 642.939 16.8623 647.859 20.5965C652.766 24.3212 659.352 26.128 667.508 26.128V24.128ZM639.619 4.79756L655.891 1.62957L655.508 -0.333572L639.236 2.83442L639.619 4.79756ZM654.705 0.752682C655.018 3.73021 656.269 6.06577 658.513 7.6251C660.715 9.15586 663.755 9.856 667.508 9.856V7.856C663.964 7.856 661.388 7.18812 659.654 5.98288C657.962 4.80622 656.957 3.03778 656.694 0.543312L654.705 0.752682ZM667.508 9.856C671.26 9.856 674.3 9.15586 676.502 7.6251C678.746 6.06577 679.997 3.73021 680.31 0.752682L678.321 0.543312C678.058 3.03778 677.053 4.80622 675.361 5.98288C673.627 7.18812 671.051 7.856 667.508 7.856V9.856ZM679.124 1.62957L695.396 4.79756L695.779 2.83442L679.507 -0.333572L679.124 1.62957ZM772.395 135H771.395V136H772.395V135ZM772.395 33.048V32.048H771.395V33.048H772.395ZM850.299 33.048H851.299V32.048H850.299V33.048ZM850.299 60.264V61.264H851.299V60.264H850.299ZM805.515 60.264V59.264H804.515V60.264H805.515ZM805.515 69.192H804.515V70.192H805.515V69.192ZM833.163 70.92L832.915 71.8889L832.925 71.8914L832.935 71.8937L833.163 70.92ZM845.691 76.104L845.161 76.952L845.168 76.9568L845.176 76.9615L845.691 76.104ZM852.027 121.032L851.237 120.418L851.236 120.42L852.027 121.032ZM837.483 131.832L837.138 130.893L837.483 131.832ZM805.515 108.648H804.515V109.648H805.515V108.648ZM820.923 106.92L821.477 107.752L821.487 107.745L820.923 106.92ZM805.515 94.104V93.104H804.515V94.104H805.515ZM773.395 135V33.048H771.395V135H773.395ZM772.395 34.048H850.299V32.048H772.395V34.048ZM849.299 33.048V60.264H851.299V33.048H849.299ZM850.299 59.264H805.515V61.264H850.299V59.264ZM804.515 60.264V69.192H806.515V60.264H804.515ZM805.515 70.192H818.331V68.192H805.515V70.192ZM818.331 70.192C823.636 70.192 828.495 70.7604 832.915 71.8889L833.41 69.9511C828.806 68.7756 823.778 68.192 818.331 68.192V70.192ZM832.935 71.8937C837.342 72.9253 841.416 74.6116 845.161 76.952L846.221 75.256C842.285 72.7964 838.007 71.0267 833.391 69.9463L832.935 71.8937ZM845.176 76.9615C848.837 79.1577 851.736 82.3673 853.868 86.6312L855.657 85.7368C853.373 81.1687 850.225 77.6582 846.205 75.2465L845.176 76.9615ZM853.868 86.6312C855.993 90.8806 857.075 95.9529 857.075 101.88H859.075C859.075 95.7111 857.948 90.3194 855.657 85.7368L853.868 86.6312ZM857.075 101.88C857.075 109.278 855.112 115.436 851.237 120.418L852.816 121.646C857.005 116.26 859.075 109.65 859.075 101.88H857.075ZM851.236 120.42C847.409 125.367 842.713 128.849 837.138 130.893L837.827 132.771C843.772 130.591 848.772 126.873 852.818 121.644L851.236 120.42ZM837.138 130.893C831.503 132.959 825.238 134 818.331 134V136C825.44 136 831.942 134.929 837.827 132.771L837.138 130.893ZM818.331 134H772.395V136H818.331V134ZM805.515 109.648H814.443V107.648H805.515V109.648ZM814.443 109.648C817.183 109.648 819.548 109.038 821.477 107.752L820.368 106.088C818.841 107.106 816.886 107.648 814.443 107.648V109.648ZM821.487 107.745C823.634 106.277 824.659 104.016 824.659 101.16H822.659C822.659 103.488 821.859 105.067 820.358 106.095L821.487 107.745ZM824.659 101.16C824.659 98.5716 823.8 96.4805 821.963 95.074C820.176 93.7062 817.614 93.104 814.443 93.104V95.104C817.415 95.104 819.461 95.6778 820.747 96.662C821.982 97.6075 822.659 99.0443 822.659 101.16H824.659ZM814.443 93.104H805.515V95.104H814.443V93.104ZM804.515 94.104V108.648H806.515V94.104H804.515ZM870.973 135H869.973V136H870.973V135ZM870.973 33.048V32.048H869.973V33.048H870.973ZM930.157 34.776L930.395 33.8047H930.395L930.157 34.776ZM943.261 40.248L942.734 41.0983L942.743 41.1037L943.261 40.248ZM952.909 50.904L952.014 51.3512L952.018 51.3586L952.022 51.3659L952.909 50.904ZM952.909 83.304L952.022 82.8421L952.018 82.8494L952.014 82.8568L952.909 83.304ZM943.405 94.248L942.85 93.4159L942.841 93.4222L943.405 94.248ZM930.157 100.296L930.408 101.264L930.421 101.26L930.157 100.296ZM905.101 102.168V101.168H904.101V102.168H905.101ZM905.101 135V136H906.101V135H905.101ZM905.101 76.104H904.101V77.104H905.101V76.104ZM919.645 73.944L919.064 73.1303V73.1303L919.645 73.944ZM905.101 59.688V58.688H904.101V59.688H905.101ZM871.973 135V33.048H869.973V135H871.973ZM870.973 34.048H914.749V32.048H870.973V34.048ZM914.749 34.048C920.248 34.048 925.303 34.617 929.919 35.7473L930.395 33.8047C925.602 32.631 920.385 32.048 914.749 32.048V34.048ZM929.919 35.7473C934.523 36.8749 938.794 38.6587 942.734 41.0983L943.787 39.3977C939.664 36.8453 935.198 34.9811 930.395 33.8047L929.919 35.7473ZM942.743 41.1037C946.698 43.4952 949.789 46.9003 952.014 51.3512L953.803 50.4568C951.421 45.6917 948.079 41.9928 943.778 39.3923L942.743 41.1037ZM952.022 51.3659C954.333 55.8033 955.509 61.11 955.509 67.32H957.509C957.509 60.858 956.285 55.2207 953.796 50.4421L952.022 51.3659ZM955.509 67.32C955.509 73.2336 954.336 78.3984 952.022 82.8421L953.796 83.7659C956.281 78.9936 957.509 73.5024 957.509 67.32H955.509ZM952.014 82.8568C949.783 87.3193 946.728 90.8306 942.85 93.4159L943.959 95.08C948.145 92.2894 951.426 88.5047 953.803 83.7512L952.014 82.8568ZM942.841 93.4222C939.002 96.0438 934.688 98.015 929.892 99.3317L930.421 101.26C935.417 99.8889 939.936 97.8282 943.969 95.0738L942.841 93.4222ZM929.905 99.3282C925.195 100.553 920.144 101.168 914.749 101.168V103.168C920.297 103.168 925.518 102.535 930.408 101.264L929.905 99.3282ZM914.749 101.168H905.101V103.168H914.749V101.168ZM904.101 102.168V135H906.101V102.168H904.101ZM905.101 134H870.973V136H905.101V134ZM905.101 77.104H912.301V75.104H905.101V77.104ZM912.301 77.104C915.354 77.104 918.014 76.3377 920.226 74.7577L919.064 73.1303C917.244 74.4303 915.007 75.104 912.301 75.104V77.104ZM920.226 74.7577C922.54 73.1047 923.669 70.6687 923.669 67.608H921.669C921.669 70.1153 920.781 71.9033 919.064 73.1303L920.226 74.7577ZM923.669 67.608C923.669 64.7308 922.713 62.4236 920.684 60.8733C918.705 59.362 915.856 58.688 912.301 58.688V60.688C915.658 60.688 917.992 61.334 919.47 62.4627C920.896 63.5524 921.669 65.2052 921.669 67.608H923.669ZM912.301 58.688H905.101V60.688H912.301V58.688ZM904.101 59.688V76.104H906.101V59.688H904.101ZM969.41 135H968.41V136H969.41V135ZM969.41 33.048V32.048H968.41V33.048H969.41ZM1039.54 33.048H1040.54V32.048H1039.54V33.048ZM1039.54 61.56V62.56H1040.54V61.56H1039.54ZM1001.67 61.56V60.56H1000.67V61.56H1001.67ZM1001.67 70.344H1000.67V71.344H1001.67V70.344ZM1037.23 70.344H1038.23V69.344H1037.23V70.344ZM1037.23 96.984V97.984H1038.23V96.984H1037.23ZM1001.67 96.984V95.984H1000.67V96.984H1001.67ZM1001.67 106.488H1000.67V107.488H1001.67V106.488ZM1041.99 106.488H1042.99V105.488H1041.99V106.488ZM1041.99 135V136H1042.99V135H1041.99ZM970.41 135V33.048H968.41V135H970.41ZM969.41 34.048H1039.54V32.048H969.41V34.048ZM1038.54 33.048V61.56H1040.54V33.048H1038.54ZM1039.54 60.56H1001.67V62.56H1039.54V60.56ZM1000.67 61.56V70.344H1002.67V61.56H1000.67ZM1001.67 71.344H1037.23V69.344H1001.67V71.344ZM1036.23 70.344V96.984H1038.23V70.344H1036.23ZM1037.23 95.984H1001.67V97.984H1037.23V95.984ZM1000.67 96.984V106.488H1002.67V96.984H1000.67ZM1001.67 107.488H1041.99V105.488H1001.67V107.488ZM1040.99 106.488V135H1042.99V106.488H1040.99ZM1041.99 134H969.41V136H1041.99V134ZM1056.18 135H1055.18V136H1056.18V135ZM1056.18 33.048V32.048H1055.18V33.048H1056.18ZM1090.45 33.048H1091.45V32.048H1090.45V33.048ZM1090.45 67.608H1089.45V68.608H1090.45V67.608ZM1118.38 67.608V68.608H1119.38V67.608H1118.38ZM1118.38 33.048V32.048H1117.38V33.048H1118.38ZM1152.66 33.048H1153.66V32.048H1152.66V33.048ZM1152.66 135V136H1153.66V135H1152.66ZM1118.38 135H1117.38V136H1118.38V135ZM1118.38 96.264H1119.38V95.264H1118.38V96.264ZM1090.45 96.264V95.264H1089.45V96.264H1090.45ZM1090.45 135V136H1091.45V135H1090.45ZM1057.18 135V33.048H1055.18V135H1057.18ZM1056.18 34.048H1090.45V32.048H1056.18V34.048ZM1089.45 33.048V67.608H1091.45V33.048H1089.45ZM1090.45 68.608H1118.38V66.608H1090.45V68.608ZM1119.38 67.608V33.048H1117.38V67.608H1119.38ZM1118.38 34.048H1152.66V32.048H1118.38V34.048ZM1151.66 33.048V135H1153.66V33.048H1151.66ZM1152.66 134H1118.38V136H1152.66V134ZM1119.38 135V96.264H1117.38V135H1119.38ZM1118.38 95.264H1090.45V97.264H1118.38V95.264ZM1089.45 96.264V135H1091.45V96.264H1089.45ZM1090.45 134H1056.18V136H1090.45V134ZM1163.56 154.44H1162.56V155.44H1163.56V154.44ZM1163.56 106.056V105.056H1162.56V106.056H1163.56ZM1172.93 106.056V107.056H1173.45L1173.75 106.621L1172.93 106.056ZM1183.87 33.048V32.048H1182.87V33.048H1183.87ZM1271.13 33.048H1272.13V32.048H1271.13V33.048ZM1271.13 106.056H1270.13V107.056H1271.13V106.056ZM1282.08 106.056H1283.08V105.056H1282.08V106.056ZM1282.08 154.44V155.44H1283.08V154.44H1282.08ZM1252.41 154.44H1251.41V155.44H1252.41V154.44ZM1252.41 135H1253.41V134H1252.41V135ZM1193.23 135V134H1192.23V135H1193.23ZM1193.23 154.44V155.44H1194.23V154.44H1193.23ZM1208.64 106.056L1207.76 105.572L1206.94 107.056H1208.64V106.056ZM1236.86 106.056V107.056H1237.86V106.056H1236.86ZM1236.86 61.704H1237.86V60.704H1236.86V61.704ZM1216.99 61.704V60.704H1215.99V61.704H1216.99ZM1164.56 154.44V106.056H1162.56V154.44H1164.56ZM1163.56 107.056H1172.93V105.056H1163.56V107.056ZM1173.75 106.621C1181.21 95.7209 1184.87 79.4007 1184.87 57.816H1182.87C1182.87 79.2393 1179.23 95.0791 1172.1 105.491L1173.75 106.621ZM1184.87 57.816V33.048H1182.87V57.816H1184.87ZM1183.87 34.048H1271.13V32.048H1183.87V34.048ZM1270.13 33.048V106.056H1272.13V33.048H1270.13ZM1271.13 107.056H1282.08V105.056H1271.13V107.056ZM1281.08 106.056V154.44H1283.08V106.056H1281.08ZM1282.08 153.44H1252.41V155.44H1282.08V153.44ZM1253.41 154.44V135H1251.41V154.44H1253.41ZM1252.41 134H1193.23V136H1252.41V134ZM1192.23 135V154.44H1194.23V135H1192.23ZM1193.23 153.44H1163.56V155.44H1193.23V153.44ZM1208.64 107.056H1236.86V105.056H1208.64V107.056ZM1237.86 106.056V61.704H1235.86V106.056H1237.86ZM1236.86 60.704H1216.99V62.704H1236.86V60.704ZM1215.99 61.704V63H1217.99V61.704H1215.99ZM1215.99 63C1215.99 81.5483 1213.21 95.7051 1207.76 105.572L1209.51 106.54C1215.2 96.2469 1217.99 81.6997 1217.99 63H1215.99Z" fill="url(#paint0_linear_2_43)"/>
<path d="M0.576 134.28L-0.420993 134.203L-0.486484 135.045L0.333464 135.25L0.576 134.28ZM2.736 106.488L3.05223 105.539L1.83817 105.135L1.73901 106.411L2.736 106.488ZM13.68 106.488L13.2861 105.569L13.68 106.488ZM17.856 102.888L18.6409 103.508H18.6409L17.856 102.888ZM21.024 93.96L20.0409 93.7771L20.0388 93.7882L20.037 93.7993L21.024 93.96ZM22.176 33.048V32.048H21.176V33.048H22.176ZM110.016 33.048H111.016V32.048H110.016V33.048ZM110.016 135V136H111.016V135H110.016ZM75.744 135H74.744V136H75.744V135ZM75.744 61.704H76.744V60.704H75.744V61.704ZM55.008 61.704V60.704H54.008V61.704H55.008ZM52.704 104.04L53.6867 104.225L53.6871 104.223L52.704 104.04ZM45.504 123.336L46.3201 123.914L46.3256 123.906L45.504 123.336ZM33.984 133.128L34.3827 134.045L33.984 133.128ZM17.712 135.008C10.9456 135.008 5.32112 134.436 0.818536 133.31L0.333464 135.25C5.04688 136.428 10.8464 137.008 17.712 137.008V135.008ZM1.57299 134.357L3.73299 106.565L1.73901 106.411L-0.420993 134.203L1.57299 134.357ZM2.41977 107.437C4.27263 108.054 6.39965 108.352 8.784 108.352V106.352C6.56035 106.352 4.65537 106.074 3.05223 105.539L2.41977 107.437ZM8.784 108.352C10.7991 108.352 12.5731 108.05 14.0739 107.407L13.2861 105.569C12.0989 106.078 10.6089 106.352 8.784 106.352V108.352ZM14.0739 107.407C15.6359 106.738 17.1524 105.393 18.6409 103.508L17.0711 102.268C15.6796 104.031 14.4121 105.086 13.2861 105.569L14.0739 107.407ZM18.6409 103.508C20.2401 101.482 21.3304 98.3017 22.011 94.1207L20.037 93.7993C19.3736 97.8743 18.3519 100.646 17.0711 102.268L18.6409 103.508ZM22.0071 94.1429C22.7905 89.9325 23.176 84.6338 23.176 78.264H21.176C21.176 84.5662 20.7935 89.7315 20.0409 93.7771L22.0071 94.1429ZM23.176 78.264V33.048H21.176V78.264H23.176ZM22.176 34.048H110.016V32.048H22.176V34.048ZM109.016 33.048V135H111.016V33.048H109.016ZM110.016 134H75.744V136H110.016V134ZM76.744 135V61.704H74.744V135H76.744ZM75.744 60.704H55.008V62.704H75.744V60.704ZM54.008 61.704V73.224H56.008V61.704H54.008ZM54.008 73.224C54.008 85.476 53.2418 95.6821 51.7209 103.857L53.6871 104.223C55.2382 95.8859 56.008 85.5479 56.008 73.224H54.008ZM51.7213 103.855C50.2005 111.934 47.8385 118.217 44.6824 122.766L46.3256 123.906C49.6975 119.047 52.1355 112.466 53.6867 104.225L51.7213 103.855ZM44.688 122.758C41.5111 127.243 37.8068 130.375 33.5853 132.211L34.3827 134.045C38.9932 132.041 42.9689 128.645 46.32 123.914L44.688 122.758ZM33.5853 132.211C29.3297 134.061 24.0504 135.008 17.712 135.008V137.008C24.2376 137.008 29.8063 136.035 34.3827 134.045L33.5853 132.211ZM129.035 135H128.035V136H129.035V135ZM129.035 33.048V32.048H128.035V33.048H129.035ZM161.579 33.048H162.579V32.048H161.579V33.048ZM161.579 87.624H160.579V88.624H161.579V87.624ZM162.155 87.624V88.624H162.747L163.032 88.1051L162.155 87.624ZM192.107 33.048V32.048H191.515L191.231 32.5669L192.107 33.048ZM227.675 33.048H228.675V32.048H227.675V33.048ZM227.675 135V136H228.675V135H227.675ZM195.131 135H194.131V136H195.131V135ZM195.131 83.448H196.131V82.448H195.131V83.448ZM194.555 83.448V82.448H193.971L193.684 82.9566L194.555 83.448ZM165.467 135V136H166.051L166.338 135.491L165.467 135ZM130.035 135V33.048H128.035V135H130.035ZM129.035 34.048H161.579V32.048H129.035V34.048ZM160.579 33.048V87.624H162.579V33.048H160.579ZM161.579 88.624H162.155V86.624H161.579V88.624ZM163.032 88.1051L192.984 33.5291L191.231 32.5669L161.279 87.1429L163.032 88.1051ZM192.107 34.048H227.675V32.048H192.107V34.048ZM226.675 33.048V135H228.675V33.048H226.675ZM227.675 134H195.131V136H227.675V134ZM196.131 135V83.448H194.131V135H196.131ZM195.131 82.448H194.555V84.448H195.131V82.448ZM193.684 82.9566L164.596 134.509L166.338 135.491L195.426 83.9394L193.684 82.9566ZM165.467 134H129.035V136H165.467V134ZM301.314 135H300.314V136H301.314V135ZM301.314 100.44H302.314V99.1322L301.052 99.475L301.314 100.44ZM252.786 96.264L253.447 95.513L252.786 96.264ZM244.434 33.048V32.048H243.434V33.048H244.434ZM278.13 33.048H279.13V32.048H278.13V33.048ZM280.866 73.512L280.159 74.2191L280.178 74.2377L280.197 74.2553L280.866 73.512ZM301.314 73.944L301.8 74.8182L302.314 74.5324V73.944H301.314ZM301.314 33.048V32.048H300.314V33.048H301.314ZM335.586 33.048H336.586V32.048H335.586V33.048ZM335.586 135V136H336.586V135H335.586ZM302.314 135V100.44H300.314V135H302.314ZM301.052 99.475C293.35 101.567 285.999 102.608 278.994 102.608V104.608C286.198 104.608 293.726 103.537 301.576 101.405L301.052 99.475ZM278.994 102.608C267.195 102.608 258.75 100.176 253.447 95.513L252.126 97.015C257.959 102.144 266.986 104.608 278.994 104.608V102.608ZM253.447 95.513C248.182 90.884 245.434 83.2547 245.434 72.36H243.434C243.434 83.5453 246.254 91.852 252.126 97.015L253.447 95.513ZM245.434 72.36V33.048H243.434V72.36H245.434ZM244.434 34.048H278.13V32.048H244.434V34.048ZM277.13 33.048V62.568H279.13V33.048H277.13ZM277.13 62.568C277.13 65.3523 277.362 67.7202 277.844 69.6505C278.325 71.5748 279.073 73.1332 280.159 74.2191L281.573 72.8049C280.835 72.0668 280.215 70.8892 279.785 69.1655C279.355 67.4478 279.13 65.2557 279.13 62.568H277.13ZM280.197 74.2553C282.399 76.2368 285.978 77.104 290.658 77.104V75.104C286.122 75.104 283.174 74.2432 281.535 72.7687L280.197 74.2553ZM290.658 77.104C295.259 77.104 299.002 76.3728 301.8 74.8182L300.829 73.0698C298.443 74.3952 295.082 75.104 290.658 75.104V77.104ZM302.314 73.944V33.048H300.314V73.944H302.314ZM301.314 34.048H335.586V32.048H301.314V34.048ZM334.586 33.048V135H336.586V33.048H334.586ZM335.586 134H301.314V136H335.586V134ZM354.598 135H353.598V136H354.598V135ZM354.598 33.048V32.048H353.598V33.048H354.598ZM388.87 33.048H389.87V32.048H388.87V33.048ZM388.87 67.608H387.87V68.608H388.87V67.608ZM416.806 67.608V68.608H417.806V67.608H416.806ZM416.806 33.048V32.048H415.806V33.048H416.806ZM451.078 33.048H452.078V32.048H451.078V33.048ZM451.078 135V136H452.078V135H451.078ZM416.806 135H415.806V136H416.806V135ZM416.806 96.264H417.806V95.264H416.806V96.264ZM388.87 96.264V95.264H387.87V96.264H388.87ZM388.87 135V136H389.87V135H388.87ZM355.598 135V33.048H353.598V135H355.598ZM354.598 34.048H388.87V32.048H354.598V34.048ZM387.87 33.048V67.608H389.87V33.048H387.87ZM388.87 68.608H416.806V66.608H388.87V68.608ZM417.806 67.608V33.048H415.806V67.608H417.806ZM416.806 34.048H451.078V32.048H416.806V34.048ZM450.078 33.048V135H452.078V33.048H450.078ZM451.078 134H416.806V136H451.078V134ZM417.806 135V96.264H415.806V135H417.806ZM416.806 95.264H388.87V97.264H416.806V95.264ZM387.87 96.264V135H389.87V96.264H387.87ZM388.87 134H354.598V136H388.87V134ZM470.051 135H469.051V136H470.051V135ZM470.051 33.048V32.048H469.051V33.048H470.051ZM504.323 33.048H505.323V32.048H504.323V33.048ZM504.323 65.88H503.323V66.88H504.323V65.88ZM529.523 67.608L529.761 66.6367L529.523 67.608ZM542.627 73.08L542.101 73.9303L542.109 73.9357L542.627 73.08ZM552.275 83.736L551.38 84.1832L552.275 83.736ZM549.395 120.312L548.603 119.701L548.602 119.703L549.395 120.312ZM534.131 131.688L534.474 132.627L534.131 131.688ZM504.323 108.36H503.323V109.36H504.323V108.36ZM518.867 106.344L519.422 107.176L519.435 107.167L519.448 107.158L518.867 106.344ZM504.323 91.944V90.944H503.323V91.944H504.323ZM565.379 135H564.379V136H565.379V135ZM565.379 33.048V32.048H564.379V33.048H565.379ZM599.651 33.048H600.651V32.048H599.651V33.048ZM599.651 135V136H600.651V135H599.651ZM471.051 135V33.048H469.051V135H471.051ZM470.051 34.048H504.323V32.048H470.051V34.048ZM503.323 33.048V65.88H505.323V33.048H503.323ZM504.323 66.88H513.971V64.88H504.323V66.88ZM513.971 66.88C519.568 66.88 524.671 67.4493 529.285 68.5793L529.761 66.6367C524.967 65.4627 519.702 64.88 513.971 64.88V66.88ZM529.285 68.5793C533.889 69.7069 538.16 71.4907 542.101 73.9303L543.153 72.2297C539.03 69.6773 534.564 67.8131 529.761 66.6367L529.285 68.5793ZM542.109 73.9357C546.065 76.3272 549.155 79.7323 551.38 84.1832L553.169 83.2888C550.787 78.5237 547.445 74.8248 543.144 72.2243L542.109 73.9357ZM551.38 84.1832C553.601 88.6241 554.731 93.9362 554.731 100.152H556.731C556.731 93.6958 555.557 88.0639 553.169 83.2888L551.38 84.1832ZM554.731 100.152C554.731 107.934 552.672 114.43 548.603 119.701L550.186 120.923C554.566 115.25 556.731 108.306 556.731 100.152H554.731ZM548.602 119.703C544.583 124.937 539.648 128.609 533.788 130.749L534.474 132.627C540.71 130.351 545.951 126.439 550.188 120.921L548.602 119.703ZM533.788 130.749C527.865 132.911 521.263 134 513.971 134V136C521.463 136 528.301 134.881 534.474 132.627L533.788 130.749ZM513.971 134H470.051V136H513.971V134ZM504.323 109.36H511.523V107.36H504.323V109.36ZM511.523 109.36C514.562 109.36 517.212 108.649 519.422 107.176L518.312 105.512C516.489 106.727 514.243 107.36 511.523 107.36V109.36ZM519.448 107.158C521.772 105.498 522.891 103.007 522.891 99.864H520.891C520.891 102.481 519.993 104.31 518.286 105.53L519.448 107.158ZM522.891 99.864C522.891 96.9868 521.935 94.6796 519.906 93.1293C517.927 91.618 515.078 90.944 511.523 90.944V92.944C514.88 92.944 517.214 93.59 518.692 94.7187C520.118 95.8084 520.891 97.4612 520.891 99.864H522.891ZM511.523 90.944H504.323V92.944H511.523V90.944ZM503.323 91.944V108.36H505.323V91.944H503.323ZM566.379 135V33.048H564.379V135H566.379ZM565.379 34.048H599.651V32.048H565.379V34.048ZM598.651 33.048V135H600.651V33.048H598.651ZM599.651 134H565.379V136H599.651V134ZM618.692 135H617.692V136H618.692V135ZM618.692 33.048V32.048H617.692V33.048H618.692ZM651.235 33.048H652.235V32.048H651.235V33.048ZM651.235 87.624H650.235V88.624H651.235V87.624ZM651.812 87.624V88.624H652.403L652.688 88.1051L651.812 87.624ZM681.763 33.048V32.048H681.172L680.887 32.5669L681.763 33.048ZM717.331 33.048H718.331V32.048H717.331V33.048ZM717.331 135V136H718.331V135H717.331ZM684.787 135H683.787V136H684.787V135ZM684.787 83.448H685.787V82.448H684.787V83.448ZM684.211 83.448V82.448H683.628L683.341 82.9566L684.211 83.448ZM655.123 135V136H655.707L655.994 135.491L655.123 135ZM695.588 3.81599L696.57 4.00188L696.755 3.02451L695.779 2.83442L695.588 3.81599ZM639.427 3.81599L639.236 2.83442L638.26 3.02451L638.445 4.00188L639.427 3.81599ZM655.7 0.647995L656.694 0.543312L656.58 -0.542156L655.508 -0.333572L655.7 0.647995ZM679.315 0.647995L679.507 -0.333572L678.435 -0.542156L678.321 0.543312L679.315 0.647995ZM619.692 135V33.048H617.692V135H619.692ZM618.692 34.048H651.235V32.048H618.692V34.048ZM650.235 33.048V87.624H652.235V33.048H650.235ZM651.235 88.624H651.812V86.624H651.235V88.624ZM652.688 88.1051L682.64 33.5291L680.887 32.5669L650.935 87.1429L652.688 88.1051ZM681.763 34.048H717.331V32.048H681.763V34.048ZM716.331 33.048V135H718.331V33.048H716.331ZM717.331 134H684.787V136H717.331V134ZM685.787 135V83.448H683.787V135H685.787ZM684.787 82.448H684.211V84.448H684.787V82.448ZM683.341 82.9566L654.253 134.509L655.994 135.491L685.082 83.9394L683.341 82.9566ZM655.123 134H618.692V136H655.123V134ZM694.605 3.6301C693.296 10.5494 690.387 15.6337 685.947 19.0034C681.494 22.3828 675.384 24.128 667.508 24.128V26.128C675.663 26.128 682.249 24.3212 687.156 20.5965C692.076 16.8623 695.191 11.2906 696.57 4.00188L694.605 3.6301ZM667.508 24.128C659.631 24.128 653.521 22.3828 649.068 19.0034C644.628 15.6337 641.719 10.5494 640.41 3.6301L638.445 4.00188C639.824 11.2906 642.939 16.8623 647.859 20.5965C652.766 24.3212 659.352 26.128 667.508 26.128V24.128ZM639.619 4.79756L655.891 1.62957L655.508 -0.333572L639.236 2.83442L639.619 4.79756ZM654.705 0.752682C655.018 3.73021 656.269 6.06577 658.513 7.6251C660.715 9.15586 663.755 9.856 667.508 9.856V7.856C663.964 7.856 661.388 7.18812 659.654 5.98288C657.962 4.80622 656.957 3.03778 656.694 0.543312L654.705 0.752682ZM667.508 9.856C671.26 9.856 674.3 9.15586 676.502 7.6251C678.746 6.06577 679.997 3.73021 680.31 0.752682L678.321 0.543312C678.058 3.03778 677.053 4.80622 675.361 5.98288C673.627 7.18812 671.051 7.856 667.508 7.856V9.856ZM679.124 1.62957L695.396 4.79756L695.779 2.83442L679.507 -0.333572L679.124 1.62957ZM772.395 135H771.395V136H772.395V135ZM772.395 33.048V32.048H771.395V33.048H772.395ZM850.299 33.048H851.299V32.048H850.299V33.048ZM850.299 60.264V61.264H851.299V60.264H850.299ZM805.515 60.264V59.264H804.515V60.264H805.515ZM805.515 69.192H804.515V70.192H805.515V69.192ZM833.163 70.92L832.915 71.8889L832.925 71.8914L832.935 71.8937L833.163 70.92ZM845.691 76.104L845.161 76.952L845.168 76.9568L845.176 76.9615L845.691 76.104ZM852.027 121.032L851.237 120.418L851.236 120.42L852.027 121.032ZM837.483 131.832L837.138 130.893L837.483 131.832ZM805.515 108.648H804.515V109.648H805.515V108.648ZM820.923 106.92L821.477 107.752L821.487 107.745L820.923 106.92ZM805.515 94.104V93.104H804.515V94.104H805.515ZM773.395 135V33.048H771.395V135H773.395ZM772.395 34.048H850.299V32.048H772.395V34.048ZM849.299 33.048V60.264H851.299V33.048H849.299ZM850.299 59.264H805.515V61.264H850.299V59.264ZM804.515 60.264V69.192H806.515V60.264H804.515ZM805.515 70.192H818.331V68.192H805.515V70.192ZM818.331 70.192C823.636 70.192 828.495 70.7604 832.915 71.8889L833.41 69.9511C828.806 68.7756 823.778 68.192 818.331 68.192V70.192ZM832.935 71.8937C837.342 72.9253 841.416 74.6116 845.161 76.952L846.221 75.256C842.285 72.7964 838.007 71.0267 833.391 69.9463L832.935 71.8937ZM845.176 76.9615C848.837 79.1577 851.736 82.3673 853.868 86.6312L855.657 85.7368C853.373 81.1687 850.225 77.6582 846.205 75.2465L845.176 76.9615ZM853.868 86.6312C855.993 90.8806 857.075 95.9529 857.075 101.88H859.075C859.075 95.7111 857.948 90.3194 855.657 85.7368L853.868 86.6312ZM857.075 101.88C857.075 109.278 855.112 115.436 851.237 120.418L852.816 121.646C857.005 116.26 859.075 109.65 859.075 101.88H857.075ZM851.236 120.42C847.409 125.367 842.713 128.849 837.138 130.893L837.827 132.771C843.772 130.591 848.772 126.873 852.818 121.644L851.236 120.42ZM837.138 130.893C831.503 132.959 825.238 134 818.331 134V136C825.44 136 831.942 134.929 837.827 132.771L837.138 130.893ZM818.331 134H772.395V136H818.331V134ZM805.515 109.648H814.443V107.648H805.515V109.648ZM814.443 109.648C817.183 109.648 819.548 109.038 821.477 107.752L820.368 106.088C818.841 107.106 816.886 107.648 814.443 107.648V109.648ZM821.487 107.745C823.634 106.277 824.659 104.016 824.659 101.16H822.659C822.659 103.488 821.859 105.067 820.358 106.095L821.487 107.745ZM824.659 101.16C824.659 98.5716 823.8 96.4805 821.963 95.074C820.176 93.7062 817.614 93.104 814.443 93.104V95.104C817.415 95.104 819.461 95.6778 820.747 96.662C821.982 97.6075 822.659 99.0443 822.659 101.16H824.659ZM814.443 93.104H805.515V95.104H814.443V93.104ZM804.515 94.104V108.648H806.515V94.104H804.515ZM870.973 135H869.973V136H870.973V135ZM870.973 33.048V32.048H869.973V33.048H870.973ZM930.157 34.776L930.395 33.8047H930.395L930.157 34.776ZM943.261 40.248L942.734 41.0983L942.743 41.1037L943.261 40.248ZM952.909 50.904L952.014 51.3512L952.018 51.3586L952.022 51.3659L952.909 50.904ZM952.909 83.304L952.022 82.8421L952.018 82.8494L952.014 82.8568L952.909 83.304ZM943.405 94.248L942.85 93.4159L942.841 93.4222L943.405 94.248ZM930.157 100.296L930.408 101.264L930.421 101.26L930.157 100.296ZM905.101 102.168V101.168H904.101V102.168H905.101ZM905.101 135V136H906.101V135H905.101ZM905.101 76.104H904.101V77.104H905.101V76.104ZM919.645 73.944L919.064 73.1303V73.1303L919.645 73.944ZM905.101 59.688V58.688H904.101V59.688H905.101ZM871.973 135V33.048H869.973V135H871.973ZM870.973 34.048H914.749V32.048H870.973V34.048ZM914.749 34.048C920.248 34.048 925.303 34.617 929.919 35.7473L930.395 33.8047C925.602 32.631 920.385 32.048 914.749 32.048V34.048ZM929.919 35.7473C934.523 36.8749 938.794 38.6587 942.734 41.0983L943.787 39.3977C939.664 36.8453 935.198 34.9811 930.395 33.8047L929.919 35.7473ZM942.743 41.1037C946.698 43.4952 949.789 46.9003 952.014 51.3512L953.803 50.4568C951.421 45.6917 948.079 41.9928 943.778 39.3923L942.743 41.1037ZM952.022 51.3659C954.333 55.8033 955.509 61.11 955.509 67.32H957.509C957.509 60.858 956.285 55.2207 953.796 50.4421L952.022 51.3659ZM955.509 67.32C955.509 73.2336 954.336 78.3984 952.022 82.8421L953.796 83.7659C956.281 78.9936 957.509 73.5024 957.509 67.32H955.509ZM952.014 82.8568C949.783 87.3193 946.728 90.8306 942.85 93.4159L943.959 95.08C948.145 92.2894 951.426 88.5047 953.803 83.7512L952.014 82.8568ZM942.841 93.4222C939.002 96.0438 934.688 98.015 929.892 99.3317L930.421 101.26C935.417 99.8889 939.936 97.8282 943.969 95.0738L942.841 93.4222ZM929.905 99.3282C925.195 100.553 920.144 101.168 914.749 101.168V103.168C920.297 103.168 925.518 102.535 930.408 101.264L929.905 99.3282ZM914.749 101.168H905.101V103.168H914.749V101.168ZM904.101 102.168V135H906.101V102.168H904.101ZM905.101 134H870.973V136H905.101V134ZM905.101 77.104H912.301V75.104H905.101V77.104ZM912.301 77.104C915.354 77.104 918.014 76.3377 920.226 74.7577L919.064 73.1303C917.244 74.4303 915.007 75.104 912.301 75.104V77.104ZM920.226 74.7577C922.54 73.1047 923.669 70.6687 923.669 67.608H921.669C921.669 70.1153 920.781 71.9033 919.064 73.1303L920.226 74.7577ZM923.669 67.608C923.669 64.7308 922.713 62.4236 920.684 60.8733C918.705 59.362 915.856 58.688 912.301 58.688V60.688C915.658 60.688 917.992 61.334 919.47 62.4627C920.896 63.5524 921.669 65.2052 921.669 67.608H923.669ZM912.301 58.688H905.101V60.688H912.301V58.688ZM904.101 59.688V76.104H906.101V59.688H904.101ZM969.41 135H968.41V136H969.41V135ZM969.41 33.048V32.048H968.41V33.048H969.41ZM1039.54 33.048H1040.54V32.048H1039.54V33.048ZM1039.54 61.56V62.56H1040.54V61.56H1039.54ZM1001.67 61.56V60.56H1000.67V61.56H1001.67ZM1001.67 70.344H1000.67V71.344H1001.67V70.344ZM1037.23 70.344H1038.23V69.344H1037.23V70.344ZM1037.23 96.984V97.984H1038.23V96.984H1037.23ZM1001.67 96.984V95.984H1000.67V96.984H1001.67ZM1001.67 106.488H1000.67V107.488H1001.67V106.488ZM1041.99 106.488H1042.99V105.488H1041.99V106.488ZM1041.99 135V136H1042.99V135H1041.99ZM970.41 135V33.048H968.41V135H970.41ZM969.41 34.048H1039.54V32.048H969.41V34.048ZM1038.54 33.048V61.56H1040.54V33.048H1038.54ZM1039.54 60.56H1001.67V62.56H1039.54V60.56ZM1000.67 61.56V70.344H1002.67V61.56H1000.67ZM1001.67 71.344H1037.23V69.344H1001.67V71.344ZM1036.23 70.344V96.984H1038.23V70.344H1036.23ZM1037.23 95.984H1001.67V97.984H1037.23V95.984ZM1000.67 96.984V106.488H1002.67V96.984H1000.67ZM1001.67 107.488H1041.99V105.488H1001.67V107.488ZM1040.99 106.488V135H1042.99V106.488H1040.99ZM1041.99 134H969.41V136H1041.99V134ZM1056.18 135H1055.18V136H1056.18V135ZM1056.18 33.048V32.048H1055.18V33.048H1056.18ZM1090.45 33.048H1091.45V32.048H1090.45V33.048ZM1090.45 67.608H1089.45V68.608H1090.45V67.608ZM1118.38 67.608V68.608H1119.38V67.608H1118.38ZM1118.38 33.048V32.048H1117.38V33.048H1118.38ZM1152.66 33.048H1153.66V32.048H1152.66V33.048ZM1152.66 135V136H1153.66V135H1152.66ZM1118.38 135H1117.38V136H1118.38V135ZM1118.38 96.264H1119.38V95.264H1118.38V96.264ZM1090.45 96.264V95.264H1089.45V96.264H1090.45ZM1090.45 135V136H1091.45V135H1090.45ZM1057.18 135V33.048H1055.18V135H1057.18ZM1056.18 34.048H1090.45V32.048H1056.18V34.048ZM1089.45 33.048V67.608H1091.45V33.048H1089.45ZM1090.45 68.608H1118.38V66.608H1090.45V68.608ZM1119.38 67.608V33.048H1117.38V67.608H1119.38ZM1118.38 34.048H1152.66V32.048H1118.38V34.048ZM1151.66 33.048V135H1153.66V33.048H1151.66ZM1152.66 134H1118.38V136H1152.66V134ZM1119.38 135V96.264H1117.38V135H1119.38ZM1118.38 95.264H1090.45V97.264H1118.38V95.264ZM1089.45 96.264V135H1091.45V96.264H1089.45ZM1090.45 134H1056.18V136H1090.45V134ZM1163.56 154.44H1162.56V155.44H1163.56V154.44ZM1163.56 106.056V105.056H1162.56V106.056H1163.56ZM1172.93 106.056V107.056H1173.45L1173.75 106.621L1172.93 106.056ZM1183.87 33.048V32.048H1182.87V33.048H1183.87ZM1271.13 33.048H1272.13V32.048H1271.13V33.048ZM1271.13 106.056H1270.13V107.056H1271.13V106.056ZM1282.08 106.056H1283.08V105.056H1282.08V106.056ZM1282.08 154.44V155.44H1283.08V154.44H1282.08ZM1252.41 154.44H1251.41V155.44H1252.41V154.44ZM1252.41 135H1253.41V134H1252.41V135ZM1193.23 135V134H1192.23V135H1193.23ZM1193.23 154.44V155.44H1194.23V154.44H1193.23ZM1208.64 106.056L1207.76 105.572L1206.94 107.056H1208.64V106.056ZM1236.86 106.056V107.056H1237.86V106.056H1236.86ZM1236.86 61.704H1237.86V60.704H1236.86V61.704ZM1216.99 61.704V60.704H1215.99V61.704H1216.99ZM1164.56 154.44V106.056H1162.56V154.44H1164.56ZM1163.56 107.056H1172.93V105.056H1163.56V107.056ZM1173.75 106.621C1181.21 95.7209 1184.87 79.4007 1184.87 57.816H1182.87C1182.87 79.2393 1179.23 95.0791 1172.1 105.491L1173.75 106.621ZM1184.87 57.816V33.048H1182.87V57.816H1184.87ZM1183.87 34.048H1271.13V32.048H1183.87V34.048ZM1270.13 33.048V106.056H1272.13V33.048H1270.13ZM1271.13 107.056H1282.08V105.056H1271.13V107.056ZM1281.08 106.056V154.44H1283.08V106.056H1281.08ZM1282.08 153.44H1252.41V155.44H1282.08V153.44ZM1253.41 154.44V135H1251.41V154.44H1253.41ZM1252.41 134H1193.23V136H1252.41V134ZM1192.23 135V154.44H1194.23V135H1192.23ZM1193.23 153.44H1163.56V155.44H1193.23V153.44ZM1208.64 107.056H1236.86V105.056H1208.64V107.056ZM1237.86 106.056V61.704H1235.86V106.056H1237.86ZM1236.86 60.704H1216.99V62.704H1236.86V60.704ZM1215.99 61.704V63H1217.99V61.704H1215.99ZM1215.99 63C1215.99 81.5483 1213.21 95.7051 1207.76 105.572L1209.51 106.54C1215.2 96.2469 1217.99 81.6997 1217.99 63H1215.99Z" fill="black" fill-opacity="0.2"/>
<defs>
<linearGradient id="paint0_linear_2_43" x1="664.5" y1="58" x2="664.5" y2="144.5" gradientUnits="userSpaceOnUse">
<stop stop-color="#979797"/>
<stop offset="1" stop-color="#979797" stop-opacity="0"/>
</linearGradient>
</defs>
</svg>
